<?xml version="1.0" encoding="UTF-8"?>
<!-- Generator: Adobe Illustrator 25.2.0, SVG Export Plug-In . SVG Version: 6.00 Build 0)  -->
<svg width="100" height="100" version="1.1" viewBox="0 0 100 100" xml:space="preserve" xmlns="http://www.w3.org/2000/svg" xmlns:ns="&amp;ns_sfw;">
<style type="text/css">
	.st0{fill:#FFFFFF;}
</style>
<metadata>
	<ns:sfw>
		<ns:slices/>
		<ns:sliceSourceBounds x="45" y="33.1" width="181" height="102.3" bottomLeftOrigin="true"/>
	</ns:sfw>
</metadata>

<g><circle cx="50" cy="50" r="50" fill="#e13856" stop-color="#000000" stroke-width="0" style="paint-order:stroke fill markers"/><g transform="matrix(.42244 0 0 .42244 -7.2404 10.249)">
	
		<path class="st0" d="m134.4 43.3c-1-0.4-2-0.4-3 0l-86.4 32.4 4.9 1.8 81.9 30.6c1 0.4 2 0.4 3 0l75.7-28.4c2.2-0.8 3.3-3.2 2.5-5.4-0.4-1.2-1.3-2.1-2.5-2.5z"/>
		<path class="st0" d="m82.9 99.7c-1.1-0.4-2.3 0.2-2.7 1.3-0.1 0.2-0.1 0.5-0.1 0.7v24.3c0 10.7 23.5 19.2 52.8 19.2 19.8 0 36.9-4 46.1-9.8 4.3-2.8 6.8-6.1 6.8-9.5v-24.7c0-1.2-0.9-2.1-2.1-2.1-0.3 0-0.5 0-0.8 0.1l-49.3 18.4c-0.5 0.2-1 0.2-1.5 0zm135.5-18.3c-0.8 0.2-1.3 0.9-1.4 1.7l-1.1 8.5-3.6 25.7c-0.2 1.2 0.6 2.2 1.8 2.4h0.3 9.5c1.2 0 2.1-0.9 2.1-2.1v-0.3l-4.8-34.2c-0.2-1.1-1.2-1.9-2.3-1.8-0.2 0-0.3 0-0.5 0.1z"/>
	
</g></g><g display="none"><path class="st0" d="m64.288 36.974 13.981 2.0388c4.0049 0.58253 5.534 5.4612 2.6942 8.2282l-10.121 9.903c-1.1651 1.0922-1.6748 2.6942-1.3835 4.2961l2.4029 13.908c0.65534 3.9321-3.4952 6.9903-6.9903 5.0971l-12.524-6.5534c-1.3835-0.72816-3.1311-0.72816-4.5146 0l-12.524 6.6262c-3.568 1.8932-7.7185-1.1651-7.0631-5.0971l2.4029-13.981c0.29126-1.6019-0.29126-3.2039-1.3835-4.2961l-10.194-9.8301c-2.9126-2.767-1.3107-7.6457 2.6942-8.2282l13.981-2.0388c1.6019-0.21845 2.9126-1.2379 3.6408-2.6214l6.2622-12.816c1.7476-3.568 6.9175-3.6408 8.6651 0l6.2622 12.67c0.72816 1.4563 2.1117 2.4757 3.7136 2.6942z" fill="#fff" stroke-width=".72816"/><g transform="matrix(.12951 0 0 .12951 16.842 16.845)" display="inline"><path class="st0" d="m281.4 380.8-36.4 1.8c-10.4 0.5-20 5.6-26.2 14s-8.4 19-5.9 29.2c0.1 0.2 0.1 0.4 0.2 0.6l21.2 73.2c2 6.8 8.2 11.6 15.4 11.6h45.3c8.3 0 15.3-6.4 15.9-14.7l6.5-78.7v-0.2c0.7-9.8-2.8-19.5-9.7-26.5-6.8-7.1-16.4-10.8-26.3-10.3z"/><path class="st0" d="m349 388.5c-8.8-0.8-16.6 5.6-17.5 14.4l-8.8 90.7c-0.9 8.8 5.6 16.6 14.4 17.5 0.5 0.1 1 0.1 1.6 0.1 8.1 0 15.1-6.2 15.9-14.5l8.8-90.7c0.9-8.8-5.6-16.7-14.4-17.5z"/><path class="st0" d="m351.6 306c-35.7-17-75.9-27.4-119.6-30.9-10.6-0.9-21 3.1-28.4 10.8s-10.9 18.2-9.7 28.8l3.1 27.3c1.7 14.8 14.3 26.4 29.2 26.8l111 3.3h1c14.1 0 26.7-8.8 31.4-22.2 6.2-17.2-1.6-36.1-18-43.9z"/><path class="st0" d="m145.3 241.7c-5.2-7.1-15.2-8.7-22.3-3.5-7.2 5.2-8.7 15.2-3.5 22.3l35.3 48.7c3.1 4.3 8 6.6 13 6.6 3.3 0 6.5-1 9.4-3.1 7.1-5.2 8.7-15.2 3.5-22.3z"/><path class="st0" d="m137 213.1v-31.3c0-8.8-7.2-16-16-16s-16 7.2-16 16v31.3c0 8.8 7.2 16 16 16s16-7.1 16-16z"/><path class="st0" d="m218.7 171.8c-8.8 0.5-15.5 8.1-15 16.9l3.4 58c0.5 8.5 7.6 15.1 16 15.1h1c8.8-0.5 15.5-8.1 15-16.9l-3.4-58c-0.6-8.9-8.1-15.6-17-15.1z"/><path class="st0" d="m272.5 271.4c0.6 0.1 1.2 0.1 1.8 0.1 8 0 15-6 15.9-14.2l8.3-73.7c1-8.8-5.3-16.7-14.1-17.7s-16.7 5.3-17.7 14.1l-8.3 73.7c-1 8.8 5.4 16.7 14.1 17.7z"/><path class="st0" d="m319 286.2c0.9 0.2 1.8 0.2 2.7 0.2 7.7 0 14.4-5.5 15.8-13.3l14-82.7c1.5-8.7-4.4-17-13.1-18.4-8.7-1.5-17 4.4-18.4 13.1l-14 82.7c-1.6 8.7 4.3 17 13 18.4z"/><path class="st0" d="m383.6 226.3c-8.6-2.2-17.3 3-19.4 11.6l-11.3 44.7c-2.2 8.6 3 17.3 11.6 19.4 1.3 0.3 2.6 0.5 3.9 0.5 7.1 0 13.7-4.8 15.5-12.1l11.3-44.7c2.1-8.5-3-17.2-11.6-19.4z"/><path class="st0" d="m218.6 164.4h1.1c8.3 0 15.4-6.5 15.9-14.9l2.9-43.1c0.6-8.8-6.1-16.4-14.9-17s-16.4 6.1-17 14.9l-2.9 43.1c-0.6 8.8 6.1 16.4 14.9 17z"/><path class="st0" d="m225.3 81.8h1.1c8.4 0 15.4-6.5 16-15l2.3-36c0.6-8.8-6.1-16.4-14.9-17s-16.4 6.1-17 14.9l-2.3 36c-0.7 8.9 6 16.5 14.8 17.1z"/><path class="st0" d="m286.3 160.4h1.1c8.3 0 15.4-6.5 15.9-14.9l3-44.7c0.6-8.8-6.1-16.4-14.9-17s-16.4 6.1-17 14.9l-3 44.7c-0.6 8.8 6 16.4 14.9 17z"/><path class="st0" d="m290.3 77.1h0.2c8.8-0.1 15.9-7.4 15.8-16.2l-0.6-44.3c-0.1-8.8-7.3-15.8-16-15.8h-0.2c-8.8 0.1-15.9 7.4-15.8 16.2l0.6 44.3c0.2 8.8 7.3 15.8 16 15.8z"/><path class="st0" d="m344.6 91.2c-8.8-0.5-16.4 6.2-17 15l-2.7 43.3c-0.5 8.8 6.2 16.4 15 17h1c8.4 0 15.4-6.5 16-15l2.7-43.3c0.6-8.9-6.1-16.5-15-17z"/><path class="st0" d="m327.7 69c0.8 8.3 7.7 14.5 15.9 14.5 0.5 0 1 0 1.5-0.1 8.8-0.8 15.3-8.6 14.4-17.4l-2.7-28.5c-0.8-8.8-8.6-15.3-17.4-14.4-8.8 0.8-15.3 8.6-14.4 17.4z"/><path class="st0" d="m392.3 161.2c-8.8-0.7-16.5 5.8-17.2 14.7l-2 24.7c-0.7 8.8 5.8 16.5 14.7 17.2 0.4 0 0.9 0.1 1.3 0.1 8.2 0 15.3-6.3 15.9-14.7l2-24.7c0.7-8.9-5.9-16.6-14.7-17.3z"/><path class="st0" d="m374 139.4c0.5 8.5 7.5 15.1 16 15.1h0.9c8.8-0.5 15.6-8.1 15.1-16.9l-1-17.5c-0.5-8.8-8.1-15.6-16.9-15.1s-15.6 8.1-15.1 16.9z"/></g><g transform="matrix(.68577 0 0 .68577 15.712 15.712)" display="inline"><path class="st0" d="m74.5 64.7c-0.3-0.3-0.7-0.5-1.1-0.7-2.2-19.6-15.6-21.7-23.4-21.7s-21.2 2.1-23.3 21.6c-0.5 0.2-0.9 0.5-1.2 0.8-1.5 1.4-2.3 3.6-2.3 6.7 0 2.7 0.7 4.6 2.1 5.8-0.6 7-0.5 12.2 1.7 15.2 1.6 2.1 5.8 1.2 10.5 0.5 0.5 0.4 1 0.8 1.6 1.2 3.2 2.2 6.9 3.4 10.8 3.4s7.6-1.2 10.8-3.4c0.6-0.4 1.1-0.8 1.6-1.2 4.7 0.7 8.9 1.6 10.5-0.4 2.3-2.9 2.3-8.1 1.7-15.2 1.3-1.2 2-3.2 2-5.8 0.2-3.3-0.5-5.5-2-6.8zm-4.2 10.2c-1.3 0.1-2.2 1.1-2.3 2.3-0.5 5-3.7 9.6-9.4 13.7-5 3.6-12.1 3.6-17.1 0-5.7-4-8.9-8.6-9.4-13.6-0.2-1.3-1.1-2.3-2.3-2.4-1.5-0.1-2.5-0.3-2.5-3.5 0-2.6 0.6-3.5 1-3.8 0.1-0.1 0.2-0.2 0.4-0.2 0.2 0.8 0.8 1.4 1.6 1.5 1.1 0.2 2.1-0.5 2.3-1.6 0.8-4.7 1.7-8.2 3.2-10.7l1.1 4.7c0.2 0.8 0.9 1.3 1.7 1.3h23.2c0.8 0 1.5-0.6 1.7-1.3l1.1-4.7c1.5 2.6 2.4 6.1 3.2 10.7 0.2 1 1 1.6 1.9 1.6h0.3c0.8-0.1 1.4-0.8 1.6-1.5 0.2 0.1 0.3 0.2 0.4 0.2 0.4 0.3 1 1.2 1 3.8-0.2 3.3-1.3 3.4-2.7 3.5z"/><circle class="st0" cx="42.7" cy="70.6" r="3.5"/><circle class="st0" cx="57.3" cy="70.6" r="3.5"/><path class="st0" d="m57.3 78.8h-14.6c-0.8 0-1.4 0.7-1.2 1.5 0.8 3.9 4.3 6.9 8.5 6.9s7.7-2.9 8.5-6.9c0.2-0.8-0.4-1.5-1.2-1.5z"/><path class="st0" d="m72.5 2.5h-45c-2.6 0-4.7 2.1-4.7 4.7v16.9c0 2.6 2.1 4.7 4.7 4.7h16.2l4.3 8c0.9 1.6 3.2 1.6 4 0l4.3-8h16.2c2.6 0 4.7-2.1 4.7-4.7v-16.9c0-2.6-2.1-4.7-4.7-4.7zm-28.2 11.3c0-0.2 0.2-0.4 0.5-0.5l2.6-0.2c0.4 0 0.7-0.3 0.9-0.6l1-2.5c0.1-0.3 0.4-0.4 0.6-0.4s0.5 0.1 0.6 0.4l1 2.5c0.2 0.3 0.5 0.6 0.9 0.6l2.7 0.2c0.3 0 0.5 0.2 0.5 0.5 0.1 0.2 0 0.5-0.2 0.7l-2 1.7c-0.3 0.3-0.4 0.7-0.3 1l0.6 2.6c0.1 0.3-0.1 0.5-0.2 0.7-0.2 0.1-0.4 0.2-0.7 0l-2.3-1.4c-0.3-0.2-0.7-0.2-1.1 0l-2.3 1.4c-0.2 0.2-0.5 0.1-0.7 0s-0.3-0.3-0.2-0.7l0.6-2.6c0.1-0.4 0-0.7-0.3-1l-2-1.7c-0.3-0.2-0.3-0.5-0.2-0.7zm-3.4 0.7-2 1.7c-0.3 0.3-0.4 0.7-0.3 1l0.6 2.6c0.1 0.3-0.1 0.5-0.2 0.7-0.2 0.1-0.5 0.2-0.7 0l-2.3-1.3c-0.3-0.2-0.8-0.2-1.1 0l-2.3 1.4c-0.2 0.2-0.5 0.1-0.7 0s-0.3-0.3-0.2-0.7l0.6-2.6c0.1-0.4 0-0.7-0.3-1l-2-1.7c-0.2-0.2-0.2-0.5-0.2-0.7 0.1-0.2 0.2-0.4 0.6-0.5l2.6-0.2c0.4 0 0.7-0.3 0.9-0.6l1-2.5c0.1-0.3 0.4-0.4 0.6-0.4s0.5 0.1 0.6 0.4l1 2.5c0.1 0.3 0.5 0.6 0.9 0.6l2.6 0.2c0.3 0 0.5 0.2 0.6 0.5 0 0.1 0 0.4-0.3 0.6zm29.2 0-2 1.7c-0.3 0.3-0.5 0.7-0.3 1l0.6 2.6c0.1 0.3 0 0.5-0.2 0.7-0.2 0.1-0.5 0.2-0.7 0l-2.3-1.4c-0.3-0.2-0.7-0.2-1.1 0l-2.3 1.4c-0.3 0.2-0.5 0.1-0.7 0s-0.3-0.3-0.2-0.7l0.6-2.6c0.1-0.4 0-0.7-0.3-1l-2-1.7c-0.2-0.2-0.3-0.5-0.2-0.7 0-0.2 0.2-0.4 0.5-0.5l2.7-0.2c0.4 0 0.7-0.3 0.9-0.6l1-2.5c0.1-0.3 0.4-0.4 0.6-0.4s0.5 0.1 0.6 0.4l1 2.5c0.2 0.3 0.5 0.6 0.9 0.6l2.6 0.2c0.3 0 0.5 0.2 0.5 0.5 0.1 0.2 0 0.5-0.2 0.7z"/></g></g></svg>
