<?xml version="1.0" encoding="utf-8"?>
<!-- Generator: Adobe Illustrator 25.2.0, SVG Export Plug-In . SVG Version: 6.00 Build 0)  -->
<!DOCTYPE svg PUBLIC "-//W3C//DTD SVG 1.1//EN" "http://www.w3.org/Graphics/SVG/1.1/DTD/svg11.dtd" [
	<!ENTITY ns_extend "http://ns.adobe.com/Extensibility/1.0/">
	<!ENTITY ns_ai "http://ns.adobe.com/AdobeIllustrator/10.0/">
	<!ENTITY ns_graphs "http://ns.adobe.com/Graphs/1.0/">
	<!ENTITY ns_vars "http://ns.adobe.com/Variables/1.0/">
	<!ENTITY ns_imrep "http://ns.adobe.com/ImageReplacement/1.0/">
	<!ENTITY ns_sfw "http://ns.adobe.com/SaveForWeb/1.0/">
	<!ENTITY ns_custom "http://ns.adobe.com/GenericCustomNamespace/1.0/">
	<!ENTITY ns_adobe_xpath "http://ns.adobe.com/XPath/1.0/">
]>
<svg version="1.1" id="Calque_1" xmlns:x="&ns_extend;" xmlns:i="&ns_ai;" xmlns:graph="&ns_graphs;"
	 xmlns="http://www.w3.org/2000/svg" xmlns:xlink="http://www.w3.org/1999/xlink" x="0px" y="0px" viewBox="0 0 512 640"
	 style="enable-background:new 0 0 512 640;" xml:space="preserve">
<style type="text/css">
	.st0{fill:#FFFFFF;}
</style>
<metadata>
	<sfw  xmlns="&ns_sfw;">
		<slices></slices>
		<sliceSourceBounds  bottomLeftOrigin="true" height="510.3" width="302" x="105" y="128.9"></sliceSourceBounds>
	</sfw>
</metadata>
<g>
	<g>
		<path class="st0" d="M281.4,380.8l-36.4,1.8c-10.4,0.5-20,5.6-26.2,14s-8.4,19-5.9,29.2c0.1,0.2,0.1,0.4,0.2,0.6l21.2,73.2
			c2,6.8,8.2,11.6,15.4,11.6H295c8.3,0,15.3-6.4,15.9-14.7l6.5-78.7c0-0.1,0-0.1,0-0.2c0.7-9.8-2.8-19.5-9.7-26.5
			C300.9,384,291.3,380.3,281.4,380.8z"/>
		<path class="st0" d="M349,388.5c-8.8-0.8-16.6,5.6-17.5,14.4l-8.8,90.7c-0.9,8.8,5.6,16.6,14.4,17.5c0.5,0.1,1,0.1,1.6,0.1
			c8.1,0,15.1-6.2,15.9-14.5l8.8-90.7C364.3,397.2,357.8,389.3,349,388.5z"/>
		<path class="st0" d="M351.6,306c-35.7-17-75.9-27.4-119.6-30.9c-10.6-0.9-21,3.1-28.4,10.8c-7.4,7.7-10.9,18.2-9.7,28.8L197,342
			c1.7,14.8,14.3,26.4,29.2,26.8l111,3.3c0.3,0,0.7,0,1,0c14.1,0,26.7-8.8,31.4-22.2C375.8,332.7,368,313.8,351.6,306z"/>
		<path class="st0" d="M145.3,241.7c-5.2-7.1-15.2-8.7-22.3-3.5c-7.2,5.2-8.7,15.2-3.5,22.3l35.3,48.7c3.1,4.3,8,6.6,13,6.6
			c3.3,0,6.5-1,9.4-3.1c7.1-5.2,8.7-15.2,3.5-22.3L145.3,241.7z"/>
		<path class="st0" d="M137,213.1v-31.3c0-8.8-7.2-16-16-16s-16,7.2-16,16v31.3c0,8.8,7.2,16,16,16S137,222,137,213.1z"/>
		<path class="st0" d="M218.7,171.8c-8.8,0.5-15.5,8.1-15,16.9l3.4,58c0.5,8.5,7.6,15.1,16,15.1c0.3,0,0.6,0,1,0
			c8.8-0.5,15.5-8.1,15-16.9l-3.4-58C235.1,178,227.6,171.3,218.7,171.8z"/>
		<path class="st0" d="M272.5,271.4c0.6,0.1,1.2,0.1,1.8,0.1c8,0,15-6,15.9-14.2l8.3-73.7c1-8.8-5.3-16.7-14.1-17.7
			c-8.8-1-16.7,5.3-17.7,14.1l-8.3,73.7C257.4,262.5,263.8,270.4,272.5,271.4z"/>
		<path class="st0" d="M319,286.2c0.9,0.2,1.8,0.2,2.7,0.2c7.7,0,14.4-5.5,15.8-13.3l14-82.7c1.5-8.7-4.4-17-13.1-18.4
			c-8.7-1.5-17,4.4-18.4,13.1l-14,82.7C304.4,276.5,310.3,284.8,319,286.2z"/>
		<path class="st0" d="M383.6,226.3c-8.6-2.2-17.3,3-19.4,11.6l-11.3,44.7c-2.2,8.6,3,17.3,11.6,19.4c1.3,0.3,2.6,0.5,3.9,0.5
			c7.1,0,13.7-4.8,15.5-12.1l11.3-44.7C397.3,237.2,392.2,228.5,383.6,226.3z"/>
		<path class="st0" d="M218.6,164.4c0.4,0,0.7,0,1.1,0c8.3,0,15.4-6.5,15.9-14.9l2.9-43.1c0.6-8.8-6.1-16.4-14.9-17
			c-8.8-0.6-16.4,6.1-17,14.9l-2.9,43.1C203.1,156.2,209.8,163.8,218.6,164.4z"/>
		<path class="st0" d="M225.3,81.8c0.4,0,0.7,0,1.1,0c8.4,0,15.4-6.5,16-15l2.3-36c0.6-8.8-6.1-16.4-14.9-17
			c-8.8-0.6-16.4,6.1-17,14.9l-2.3,36C209.8,73.6,216.5,81.2,225.3,81.8z"/>
		<path class="st0" d="M286.3,160.4c0.4,0,0.7,0,1.1,0c8.3,0,15.4-6.5,15.9-14.9l3-44.7c0.6-8.8-6.1-16.4-14.9-17
			c-8.8-0.6-16.4,6.1-17,14.9l-3,44.7C270.8,152.2,277.4,159.8,286.3,160.4z"/>
		<path class="st0" d="M290.3,77.1c0.1,0,0.2,0,0.2,0c8.8-0.1,15.9-7.4,15.8-16.2l-0.6-44.3c-0.1-8.8-7.3-15.8-16-15.8
			c-0.1,0-0.2,0-0.2,0c-8.8,0.1-15.9,7.4-15.8,16.2l0.6,44.3C274.5,70.1,281.6,77.1,290.3,77.1z"/>
		<path class="st0" d="M344.6,91.2c-8.8-0.5-16.4,6.2-17,15l-2.7,43.3c-0.5,8.8,6.2,16.4,15,17c0.3,0,0.7,0,1,0
			c8.4,0,15.4-6.5,16-15l2.7-43.3C360.2,99.3,353.5,91.7,344.6,91.2z"/>
		<path class="st0" d="M327.7,69c0.8,8.3,7.7,14.5,15.9,14.5c0.5,0,1,0,1.5-0.1c8.8-0.8,15.3-8.6,14.4-17.4l-2.7-28.5
			c-0.8-8.8-8.6-15.3-17.4-14.4c-8.8,0.8-15.3,8.6-14.4,17.4L327.7,69z"/>
		<path class="st0" d="M392.3,161.2c-8.8-0.7-16.5,5.8-17.2,14.7l-2,24.7c-0.7,8.8,5.8,16.5,14.7,17.2c0.4,0,0.9,0.1,1.3,0.1
			c8.2,0,15.3-6.3,15.9-14.7l2-24.7C407.7,169.6,401.1,161.9,392.3,161.2z"/>
		<path class="st0" d="M374,139.4c0.5,8.5,7.5,15.1,16,15.1c0.3,0,0.6,0,0.9,0c8.8-0.5,15.6-8.1,15.1-16.9l-1-17.5
			c-0.5-8.8-8.1-15.6-16.9-15.1c-8.8,0.5-15.6,8.1-15.1,16.9L374,139.4z"/>
	</g>
</g>
</svg>
