<?xml version="1.0" encoding="utf-8"?>
<!-- Generator: Adobe Illustrator 25.2.0, SVG Export Plug-In . SVG Version: 6.00 Build 0)  -->
<!DOCTYPE svg PUBLIC "-//W3C//DTD SVG 1.1//EN" "http://www.w3.org/Graphics/SVG/1.1/DTD/svg11.dtd" [
	<!ENTITY ns_extend "http://ns.adobe.com/Extensibility/1.0/">
	<!ENTITY ns_ai "http://ns.adobe.com/AdobeIllustrator/10.0/">
	<!ENTITY ns_graphs "http://ns.adobe.com/Graphs/1.0/">
	<!ENTITY ns_vars "http://ns.adobe.com/Variables/1.0/">
	<!ENTITY ns_imrep "http://ns.adobe.com/ImageReplacement/1.0/">
	<!ENTITY ns_sfw "http://ns.adobe.com/SaveForWeb/1.0/">
	<!ENTITY ns_custom "http://ns.adobe.com/GenericCustomNamespace/1.0/">
	<!ENTITY ns_adobe_xpath "http://ns.adobe.com/XPath/1.0/">
]>
<svg version="1.1" xmlns:x="&ns_extend;" xmlns:i="&ns_ai;" xmlns:graph="&ns_graphs;"
	 xmlns="http://www.w3.org/2000/svg" xmlns:xlink="http://www.w3.org/1999/xlink" x="0px" y="0px" viewBox="0 0 100 125"
	 style="enable-background:new 0 0 100 125;" xml:space="preserve">
<style type="text/css">
	.st0{fill:#FFFFFF;}
</style>
<metadata>
	<sfw  xmlns="&ns_sfw;">
		<slices></slices>
		<sliceSourceBounds  bottomLeftOrigin="true" height="95" width="54.4" x="22.8" y="27.5"></sliceSourceBounds>
	</sfw>
</metadata>
<g id="Calque_2">
</g>
<g id="Calque_1">
	<g>
		<path class="st0" d="M74.5,64.7c-0.3-0.3-0.7-0.5-1.1-0.7C71.2,44.4,57.8,42.3,50,42.3s-21.2,2.1-23.3,21.6
			c-0.5,0.2-0.9,0.5-1.2,0.8c-1.5,1.4-2.3,3.6-2.3,6.7c0,2.7,0.7,4.6,2.1,5.8c-0.6,7-0.5,12.2,1.7,15.2c1.6,2.1,5.8,1.2,10.5,0.5
			c0.5,0.4,1,0.8,1.6,1.2c3.2,2.2,6.9,3.4,10.8,3.4s7.6-1.2,10.8-3.4c0.6-0.4,1.1-0.8,1.6-1.2c4.7,0.7,8.9,1.6,10.5-0.4
			c2.3-2.9,2.3-8.1,1.7-15.2c1.3-1.2,2-3.2,2-5.8C76.7,68.2,76,66,74.5,64.7z M70.3,74.9C69,75,68.1,76,68,77.2
			c-0.5,5-3.7,9.6-9.4,13.7c-5,3.6-12.1,3.6-17.1,0c-5.7-4-8.9-8.6-9.4-13.6C31.9,76,31,75,29.8,74.9c-1.5-0.1-2.5-0.3-2.5-3.5
			c0-2.6,0.6-3.5,1-3.8c0.1-0.1,0.2-0.2,0.4-0.2c0.2,0.8,0.8,1.4,1.6,1.5c1.1,0.2,2.1-0.5,2.3-1.6c0.8-4.7,1.7-8.2,3.2-10.7l1.1,4.7
			c0.2,0.8,0.9,1.3,1.7,1.3h23.2c0.8,0,1.5-0.6,1.7-1.3l1.1-4.7c1.5,2.6,2.4,6.1,3.2,10.7c0.2,1,1,1.6,1.9,1.6c0.1,0,0.2,0,0.3,0
			c0.8-0.1,1.4-0.8,1.6-1.5c0.2,0.1,0.3,0.2,0.4,0.2c0.4,0.3,1,1.2,1,3.8C72.8,74.7,71.7,74.8,70.3,74.9z"/>
		<circle class="st0" cx="42.7" cy="70.6" r="3.5"/>
		<circle class="st0" cx="57.3" cy="70.6" r="3.5"/>
		<path class="st0" d="M57.3,78.8H42.7c-0.8,0-1.4,0.7-1.2,1.5c0.8,3.9,4.3,6.9,8.5,6.9s7.7-2.9,8.5-6.9
			C58.7,79.5,58.1,78.8,57.3,78.8z"/>
		<path class="st0" d="M72.5,2.5h-45c-2.6,0-4.7,2.1-4.7,4.7v16.9c0,2.6,2.1,4.7,4.7,4.7h16.2l4.3,8c0.9,1.6,3.2,1.6,4,0l4.3-8h16.2
			c2.6,0,4.7-2.1,4.7-4.7V7.2C77.2,4.6,75.1,2.5,72.5,2.5z M44.3,13.8c0-0.2,0.2-0.4,0.5-0.5l2.6-0.2c0.4,0,0.7-0.3,0.9-0.6l1-2.5
			c0.1-0.3,0.4-0.4,0.6-0.4c0.2,0,0.5,0.1,0.6,0.4l1,2.5c0.2,0.3,0.5,0.6,0.9,0.6l2.7,0.2c0.3,0,0.5,0.2,0.5,0.5
			c0.1,0.2,0,0.5-0.2,0.7l-2,1.7c-0.3,0.3-0.4,0.7-0.3,1l0.6,2.6c0.1,0.3-0.1,0.5-0.2,0.7c-0.2,0.1-0.4,0.2-0.7,0l-2.3-1.4
			c-0.3-0.2-0.7-0.2-1.1,0l-2.3,1.4c-0.2,0.2-0.5,0.1-0.7,0s-0.3-0.3-0.2-0.7l0.6-2.6c0.1-0.4,0-0.7-0.3-1l-2-1.7
			C44.2,14.3,44.2,14,44.3,13.8z M40.9,14.5l-2,1.7c-0.3,0.3-0.4,0.7-0.3,1l0.6,2.6c0.1,0.3-0.1,0.5-0.2,0.7c-0.2,0.1-0.5,0.2-0.7,0
			L36,19.2c-0.3-0.2-0.8-0.2-1.1,0l-2.3,1.4c-0.2,0.2-0.5,0.1-0.7,0s-0.3-0.3-0.2-0.7l0.6-2.6c0.1-0.4,0-0.7-0.3-1l-2-1.7
			c-0.2-0.2-0.2-0.5-0.2-0.7c0.1-0.2,0.2-0.4,0.6-0.5l2.6-0.2c0.4,0,0.7-0.3,0.9-0.6l1-2.5c0.1-0.3,0.4-0.4,0.6-0.4
			c0.2,0,0.5,0.1,0.6,0.4l1,2.5c0.1,0.3,0.5,0.6,0.9,0.6l2.6,0.2c0.3,0,0.5,0.2,0.6,0.5C41.2,14,41.2,14.3,40.9,14.5z M70.1,14.5
			l-2,1.7c-0.3,0.3-0.5,0.7-0.3,1l0.6,2.6c0.1,0.3,0,0.5-0.2,0.7c-0.2,0.1-0.5,0.2-0.7,0l-2.3-1.4c-0.3-0.2-0.7-0.2-1.1,0l-2.3,1.4
			c-0.3,0.2-0.5,0.1-0.7,0s-0.3-0.3-0.2-0.7l0.6-2.6c0.1-0.4,0-0.7-0.3-1l-2-1.7C59,14.3,58.9,14,59,13.8c0-0.2,0.2-0.4,0.5-0.5
			l2.7-0.2c0.4,0,0.7-0.3,0.9-0.6l1-2.5c0.1-0.3,0.4-0.4,0.6-0.4s0.5,0.1,0.6,0.4l1,2.5c0.2,0.3,0.5,0.6,0.9,0.6l2.6,0.2
			c0.3,0,0.5,0.2,0.5,0.5C70.4,14,70.3,14.3,70.1,14.5z"/>
	</g>
</g>
</svg>
