<?xml version="1.0" encoding="utf-8"?>
<!-- Generator: Adobe Illustrator 25.2.0, SVG Export Plug-In . SVG Version: 6.00 Build 0)  -->
<!DOCTYPE svg PUBLIC "-//W3C//DTD SVG 1.1//EN" "http://www.w3.org/Graphics/SVG/1.1/DTD/svg11.dtd" [
	<!ENTITY ns_extend "http://ns.adobe.com/Extensibility/1.0/">
	<!ENTITY ns_ai "http://ns.adobe.com/AdobeIllustrator/10.0/">
	<!ENTITY ns_graphs "http://ns.adobe.com/Graphs/1.0/">
	<!ENTITY ns_vars "http://ns.adobe.com/Variables/1.0/">
	<!ENTITY ns_imrep "http://ns.adobe.com/ImageReplacement/1.0/">
	<!ENTITY ns_sfw "http://ns.adobe.com/SaveForWeb/1.0/">
	<!ENTITY ns_custom "http://ns.adobe.com/GenericCustomNamespace/1.0/">
	<!ENTITY ns_adobe_xpath "http://ns.adobe.com/XPath/1.0/">
]>
<svg version="1.1" id="Calque_1" xmlns:x="&ns_extend;" xmlns:i="&ns_ai;" xmlns:graph="&ns_graphs;"
	 xmlns="http://www.w3.org/2000/svg" xmlns:xlink="http://www.w3.org/1999/xlink" x="0px" y="0px" viewBox="0 0 261.1 178.4"
	 style="enable-background:new 0 0 261.1 178.4;" xml:space="preserve">
<style type="text/css">
	.st0{fill:#FFFFFF;}
</style>
<metadata>
	<sfw  xmlns="&ns_sfw;">
		<slices></slices>
		<sliceSourceBounds  bottomLeftOrigin="true" height="102.3" width="181" x="45" y="33.1"></sliceSourceBounds>
	</sfw>
</metadata>
<g transform="translate(0 0)">
	<g transform="translate(0 0)">
		<path class="st0" d="M134.4,43.3c-1-0.4-2-0.4-3,0L45,75.7l4.9,1.8l81.9,30.6c1,0.4,2,0.4,3,0l75.7-28.4c2.2-0.8,3.3-3.2,2.5-5.4
			c-0.4-1.2-1.3-2.1-2.5-2.5L134.4,43.3z"/>
		<path class="st0" d="M82.9,99.7c-1.1-0.4-2.3,0.2-2.7,1.3c-0.1,0.2-0.1,0.5-0.1,0.7V126c0,10.7,23.5,19.2,52.8,19.2
			c19.8,0,36.9-4,46.1-9.8c4.3-2.8,6.8-6.1,6.8-9.5v-24.7c0-1.2-0.9-2.1-2.1-2.1c-0.3,0-0.5,0-0.8,0.1l-49.3,18.4
			c-0.5,0.2-1,0.2-1.5,0L82.9,99.7z M218.4,81.4c-0.8,0.2-1.3,0.9-1.4,1.7l-1.1,8.5l-3.6,25.7c-0.2,1.2,0.6,2.2,1.8,2.4
			c0.1,0,0.2,0,0.3,0h9.5c1.2,0,2.1-0.9,2.1-2.1c0-0.1,0-0.2,0-0.3l-4.8-34.2c-0.2-1.1-1.2-1.9-2.3-1.8
			C218.7,81.3,218.6,81.3,218.4,81.4L218.4,81.4z"/>
	</g>
</g>
</svg>
