<?xml version="1.0" encoding="utf-8"?>
<!-- Generator: Adobe Illustrator 25.2.0, SVG Export Plug-In . SVG Version: 6.00 Build 0)  -->
<!DOCTYPE svg PUBLIC "-//W3C//DTD SVG 1.1//EN" "http://www.w3.org/Graphics/SVG/1.1/DTD/svg11.dtd" [
	<!ENTITY ns_extend "http://ns.adobe.com/Extensibility/1.0/">
	<!ENTITY ns_ai "http://ns.adobe.com/AdobeIllustrator/10.0/">
	<!ENTITY ns_graphs "http://ns.adobe.com/Graphs/1.0/">
	<!ENTITY ns_vars "http://ns.adobe.com/Variables/1.0/">
	<!ENTITY ns_imrep "http://ns.adobe.com/ImageReplacement/1.0/">
	<!ENTITY ns_sfw "http://ns.adobe.com/SaveForWeb/1.0/">
	<!ENTITY ns_custom "http://ns.adobe.com/GenericCustomNamespace/1.0/">
	<!ENTITY ns_adobe_xpath "http://ns.adobe.com/XPath/1.0/">
]>
<svg version="1.1" id="Calque_1" xmlns:x="&ns_extend;" xmlns:i="&ns_ai;" xmlns:graph="&ns_graphs;"
	 xmlns="http://www.w3.org/2000/svg" xmlns:xlink="http://www.w3.org/1999/xlink" x="0px" y="0px" viewBox="0 0 100 125"
	 style="enable-background:new 0 0 100 125;" xml:space="preserve">
<style type="text/css">
	.st0{fill:#FFFFFF;}
</style>
<metadata>
	<sfw  xmlns="&ns_sfw;">
		<slices></slices>
		<sliceSourceBounds  bottomLeftOrigin="true" height="85.4" width="89" x="5.5" y="32.3"></sliceSourceBounds>
	</sfw>
</metadata>
<path class="st0" d="M69.6,32.1l19.2,2.8c5.5,0.8,7.6,7.5,3.7,11.3L78.6,59.8c-1.6,1.5-2.3,3.7-1.9,5.9L80,84.8
	c0.9,5.4-4.8,9.6-9.6,7l-17.2-9c-1.9-1-4.3-1-6.2,0l-17.2,9.1c-4.9,2.6-10.6-1.6-9.7-7l3.3-19.2c0.4-2.2-0.4-4.4-1.9-5.9L7.5,46.3
	c-4-3.8-1.8-10.5,3.7-11.3l19.2-2.8c2.2-0.3,4-1.7,5-3.6L44,11c2.4-4.9,9.5-5,11.9,0l8.6,17.4C65.5,30.4,67.4,31.8,69.6,32.1z"/>
</svg>
