<?xml version="1.0" encoding="UTF-8"?>
<!-- Created with Inkscape (http://www.inkscape.org/) -->
<svg width="32.243" height="25.107" version="1.1" viewBox="0 0 32.243 25.107" xml:space="preserve" xmlns="http://www.w3.org/2000/svg"><defs><clipPath id="clipPath16"><path d="m0 120h120v-120h-120z"/></clipPath></defs><g transform="matrix(1.3333 0 0 -1.3333 -63.217 93.149)"><g fill="#fff"><g clip-path="url(#clipPath16)" fill="#fff"><g transform="translate(71.399 53.212)" fill="#fff"><path d="m0 0c-0.01-1.2-0.98-2.171-2.181-2.181h-19.625c-1.2 0.01-2.17 0.981-2.181 2.181v10.504c0.42-0.444 0.885-0.843 1.388-1.189 2.182-1.586 4.361-2.973 6.542-4.559 1.189-0.793 2.578-1.784 3.965-1.784 1.388 0 2.776 0.991 3.965 1.784 2.182 1.586 4.361 3.172 6.542 4.559 0.4 0.4 0.991 0.793 1.389 1.189v-10.506zm-2.379 10.9c-1.981-1.388-4.163-2.775-6.144-4.361-0.793-0.595-2.379-1.784-3.371-1.784-0.991 0-2.577 1.189-3.37 1.784-1.982 1.388-4.163 2.973-6.145 4.361-0.99 0.595-2.379 2.181-2.379 3.37-0.133 1.173 0.71 2.232 1.883 2.366 0.099 0.011 0.199 0.015 0.299 0.013h19.621c1.2-0.01 2.171-0.981 2.18-2.181-0.304-1.505-1.242-2.805-2.574-3.568" fill="#fff"/></g></g></g></g></svg>
