<?xml version="1.0" encoding="UTF-8"?>
<!-- Created with Inkscape (http://www.inkscape.org/) -->
<svg width="97.643" height="97.643" version="1.1" viewBox="0 0 97.643 97.643" xml:space="preserve" xmlns="http://www.w3.org/2000/svg"><defs><clipPath id="clipPath16-6"><path d="M 0,841.89 H 595.276 V 0 H 0 Z"/></clipPath></defs><circle cx="48.821" cy="48.821" r="48.821" fill="#7028ce" stop-color="#000000" stroke-width="0" style="paint-order:stroke fill markers"/><g transform="matrix(1.7476 0 0 -1.7476 -487.43 1044.4)"><g fill="#fff"><g clip-path="url(#clipPath16-6)" fill="#fff"><g transform="translate(296.6,584.82)" fill="#fff"><path d="m0 0c-0.976-0.147-2.286-0.816-2.831-1.289-3.237-2.804-1.878-5.626-0.366-8.887 1.965-4.235 4.852-8.24 8.166-11.358 1.059-0.995 1.463-1.43 2.778-2.446 2.471-1.905 4.693-3.348 7.596-4.777 0.807-0.398 1.972-1.014 2.871-1.281 1.341-0.398 2.13-0.27 3.31 0.322 1.616 0.809 3.452 2.625 3.765 4.445 0.252 1.466-0.681 2.208-1.33 2.747l-1.165 0.91c-0.823 0.646-2.909 2.142-3.703 2.526-3.188 1.541-3.989-1.639-5.21-2.219-1.674-0.795-4.857 1.605-5.718 2.278-1.572 1.227-2.701 2.779-3.643 4.58-2.804 5.363 4.192 3.655 1.693 8.38-0.487 0.921-1.045 1.745-1.609 2.54-0.144 0.203-0.301 0.356-0.438 0.556-0.167 0.246-0.278 0.367-0.478 0.599-0.926 1.073-1.972 2.633-3.688 2.374" fill="#fff" fill-rule="evenodd"/></g></g></g></g></svg>
