<?xml version="1.0" encoding="UTF-8"?>
<!-- Created with Inkscape (http://www.inkscape.org/) -->
<svg width="97.643" height="97.643" version="1.1" viewBox="0 0 97.643 97.643" xml:space="preserve" xmlns="http://www.w3.org/2000/svg"><defs><clipPath id="clipPath16"><path d="m0 120h120v-120h-120z"/></clipPath></defs><circle cx="48.821" cy="48.821" r="48.821" fill="#7028ce" stop-color="#000000" stroke-width="0" style="paint-order:stroke fill markers"/><g transform="matrix(2.1491 0 0 -2.1491 -79.296 181.51)"><g fill="#fff"><g clip-path="url(#clipPath16)" fill="#fff"><g transform="translate(71.399,53.212)" fill="#fff"><path d="m0.25732 11.72c0.19068 0.15156 0.47424 0.009778 0.47424-0.22979v-9.9982c0-1.2956-1.0512-2.3468-2.3468-2.3468h-20.339c-1.2956 0-2.3468 1.0512-2.3468 2.3468v9.9933c0 0.24445 0.27868 0.38135 0.47424 0.22979 1.0952-0.8507 2.5472-1.9312 7.5341-5.554 1.0316-0.75292 2.7721-2.337 4.5077-2.3272 1.7454-0.014667 3.5201 1.6036 4.5126 2.3272 4.9869 3.6228 6.434 4.7082 7.5292 5.5589zm-12.042-6.3167c1.1343-0.019556 2.7672 1.4276 3.5886 2.0241 6.4878 4.7082 6.9816 5.1189 8.4777 6.2923 0.28357 0.22001 0.4498 0.56224 0.4498 0.92404v0.92893c0 1.2956-1.0512 2.3468-2.3468 2.3468h-20.339c-1.2956 0-2.3468-1.0512-2.3468-2.3468v-0.92893c0-0.36179 0.16623-0.69914 0.4498-0.92404 1.4961-1.1685 1.9899-1.5841 8.4777-6.2923 0.82137-0.59647 2.4543-2.0436 3.5886-2.0241z" fill="#fff" stroke-width=".048891"/></g></g></g></g></svg>
