<?xml version="1.0" encoding="UTF-8"?>
<!-- Created with Inkscape (http://www.inkscape.org/) -->
<svg width="13.719" height="13.112" version="1.1" viewBox="0 0 13.719 13.112" xml:space="preserve" xmlns="http://www.w3.org/2000/svg"><defs><clipPath id="clipPath16"><path d="m0 700h1440v-700h-1440z"/></clipPath></defs><g transform="matrix(1.3333 0 0 -1.3333 -345.12 764.92)"><g fill="#fff"><g clip-path="url(#clipPath16)" fill="#fff"><g transform="translate(269.13 563.86)" fill="#fff"><path d="m0 0h-2.204v3.55c0 0.891-0.321 1.501-1.119 1.501-0.609 0-0.971-0.408-1.132-0.804-0.053-0.147-0.073-0.341-0.073-0.542v-3.705h-2.204c0.027 6.016 0 6.639 0 6.639h2.204v-0.965h-0.014c0.289 0.455 0.811 1.118 2.003 1.118 1.454 0 2.539-0.951 2.539-2.987zm-7.951 0h-2.21v6.639h2.21zm-1.106 7.543h-0.013c-0.743 0-1.219 0.509-1.219 1.145 0 0.65 0.496 1.146 1.246 1.146 0.757 0 1.226-0.496 1.232-1.146 7e-3 -0.636-0.475-1.145-1.246-1.145" fill="#fff"/></g></g></g></g></svg>
