<?xml version="1.0" encoding="UTF-8"?>
<!-- Created with Inkscape (http://www.inkscape.org/) -->
<svg width="21.333" height="17.328" version="1.1" viewBox="0 0 21.333 17.328" xml:space="preserve" xmlns="http://www.w3.org/2000/svg"><defs><clipPath id="clipPath16"><path d="m0 120h120v-120h-120z"/></clipPath></defs><g transform="matrix(1.3333 0 0 -1.3333 -68.672 89.048)"><g clip-path="url(#clipPath16)"><g transform="translate(67.504 65.25)"><path d="m0 0c-0.599-0.266-1.234-0.44-1.885-0.517 0.685 0.411 1.198 1.056 1.444 1.816-0.644-0.384-1.349-0.654-2.085-0.8-1.241 1.323-3.319 1.389-4.642 0.148-0.854-0.801-1.217-1.997-0.952-3.138-2.639 0.133-5.098 1.38-6.765 3.431-0.872-1.501-0.427-3.42 1.016-4.384-0.521 0.017-1.03 0.158-1.486 0.411-0.019-1.578 1.086-2.946 2.633-3.26-0.482-0.13-0.987-0.15-1.478-0.056 0.43-1.337 1.663-2.253 3.067-2.279-1.378-1.08-3.129-1.571-4.867-1.361 1.501-0.964 3.248-1.474 5.031-1.471 5.127-0.033 9.311 4.097 9.343 9.224 1e-3 0.18-3e-3 0.361-0.012 0.541 0.643 0.462 1.198 1.036 1.638 1.695" fill="#fff"/></g></g></g></svg>
