<?xml version="1.0" encoding="UTF-8" standalone="no"?>
<!-- Created with Inkscape (http://www.inkscape.org/) -->

<svg
   version="1.1"
   id="svg2"
   xml:space="preserve"
   width="1762.6425"
   height="509.02158"
   viewBox="0 0 1762.6425 509.02159"
   sodipodi:docname="logo.svg"
   inkscape:version="1.1 (c68e22c387, 2021-05-23)"
   xmlns:inkscape="http://www.inkscape.org/namespaces/inkscape"
   xmlns:sodipodi="http://sodipodi.sourceforge.net/DTD/sodipodi-0.dtd"
   xmlns="http://www.w3.org/2000/svg"
   xmlns:svg="http://www.w3.org/2000/svg"><defs
     id="defs6"><clipPath
       clipPathUnits="userSpaceOnUse"
       id="clipPath16"><path
         d="M 0,1024 H 3125.206 V 0 H 0 Z"
         id="path14" /></clipPath></defs><sodipodi:namedview
     id="namedview4"
     pagecolor="#ffffff"
     bordercolor="#666666"
     borderopacity="1.0"
     inkscape:pageshadow="2"
     inkscape:pageopacity="0.0"
     inkscape:pagecheckerboard="0"
     showgrid="false"
     inkscape:zoom="0.30573945"
     inkscape:cx="1666.4516"
     inkscape:cy="470.98927"
     inkscape:window-width="2560"
     inkscape:window-height="1023"
     inkscape:window-x="0"
     inkscape:window-y="0"
     inkscape:window-maximized="1"
     inkscape:current-layer="g8" /><g
     id="g8"
     inkscape:groupmode="layer"
     inkscape:label="LOGO-DOCTEUR-ARNAOUT-TXT-BLANC-V2"
     transform="matrix(1.3333333,0,0,-1.3333333,-414.26239,1154.2849)"><g
       id="g10"><g
         id="g12"
         clip-path="url(#clipPath16)"><g
           id="g18"
           transform="translate(310.6968,674.8677)"><path
             d="M 0,0 C 0,105.401 85.445,190.846 190.846,190.846 296.248,190.846 381.692,105.401 381.692,0 381.692,-105.401 296.248,-190.846 190.846,-190.846 85.445,-190.846 0,-105.401 0,0"
             style="fill:#d0021b;fill-opacity:1;fill-rule:nonzero;stroke:none"
             id="path20" /></g><g
           id="g22"
           transform="translate(565.5137,606.3452)"><path
             d="M 0,0 C 7.494,10.455 9.984,23.302 15.371,31.084 22.143,40.861 44.005,65.875 50.203,73.464 55.621,80.098 52.204,90.411 38.999,86.841 29.456,84.26 26.196,84.104 8.389,65.967 1.019,58.46 -12.027,37.857 -17.432,38.414 -22.834,38.97 -20.174,60.21 -20.24,69.136 -20.306,78.063 -10.869,108.096 -7.043,127.187 -3.219,146.277 -1.822,173.134 -2.179,182.64 -2.757,198.017 -16.248,211.919 -23.281,183.401 -28.975,160.31 -29.405,144.757 -31.553,136.253 -34.144,125.991 -39.384,100.124 -44.59,101.003 -49.796,101.882 -42.788,190.546 -43.66,205.483 -44.952,227.589 -63.926,229.919 -66.655,205.928 -69.203,183.53 -70.762,105.847 -75.392,103.664 -83.283,99.943 -85.311,165.543 -89.174,196.455 -91.846,217.834 -105.05,212.201 -107.196,196.108 -109.863,176.108 -105.572,92.126 -106.725,89.126 -109.588,81.679 -120.321,121.723 -123.139,162.836 -124.475,182.33 -139.255,177.046 -141.715,158.492 -144.289,139.075 -132.715,37.533 -130.417,18.312 -128.119,-0.909 -120.014,-22.245 -117.994,-34.742 -114.921,-53.755 -116.015,-83.369 -119.451,-114.13 -101.894,-119.457 -83.267,-122.324 -63.971,-122.324 -58.196,-122.324 -52.481,-122.067 -46.836,-121.565 -43.227,-85.828 -38.763,-53.546 -35.454,-44.939 -29.352,-29.068 -10.288,-14.353 0,0"
             style="fill:#e13856;fill-opacity:1;fill-rule:nonzero;stroke:none"
             id="path24" /></g><g
           id="g26"
           transform="translate(465.3359,543.2969)"><path
             d="M 0,0 C -3.557,-1.422 -2.946,9.185 -7.952,5.489 -13.169,1.638 -8.753,-12.678 -9.332,-23.636 -9.435,-25.574 -10.782,-36.412 -12.947,-52.938 -8.088,-54.229 -3.098,-55.313 1.904,-56.222 3.987,-39.059 5.284,-28.175 5.372,-27.207 6.042,-19.821 12.413,-12.181 13.863,-5.025 14.69,-0.941 9.531,3.813 0,0"
             style="fill:#ffffff;fill-opacity:1;fill-rule:nonzero;stroke:none"
             id="path28" /></g><g
           id="g30"
           transform="translate(520.4424,558.1255)"><path
             d="M 0,0 C -5.453,2.928 -9.556,-6.036 -18.889,-10.397 -24.865,-13.197 -34.348,-9.807 -37.777,-15.25 -41.207,-20.693 -34.84,-33.74 -32.184,-59.713 -31.945,-62.052 -31.898,-66.896 -32.038,-73.73 -27.696,-74.025 -23.316,-74.178 -18.899,-74.178 -15.672,-74.178 -12.464,-74.097 -9.276,-73.939 -7.479,-58.555 -6.184,-48.167 -5.719,-45.402 -2.721,-27.573 10.293,-5.505 0,0"
             style="fill:#ffffff;fill-opacity:1;fill-rule:nonzero;stroke:none"
             id="path32" /></g><g
           id="g34"
           transform="translate(562.5601,621.5903)"><path
             d="M 0,0 C -1.204,-1.591 -3.617,-5.483 -9.683,-13.873 -14.403,-20.402 -15.582,-25.358 -16.276,-26.88 -17.587,-29.762 -18.717,-35.497 -23.682,-33.849 -26.327,-32.964 -29.675,-31.381 -30.333,-29.104 -30.989,-26.84 -37.097,-26.725 -36.474,-23.064 -35.108,-15.026 -25.139,-18.444 -21.468,-13.657 -17.84,-8.925 -15.014,-4.969 -10.611,2.096 -8.013,6.267 -10.944,18.177 -5.43,20.178 -2.577,21.213 0.229,20.288 2.082,19.393 3.936,18.497 6.226,16.139 7.919,11.961 9.264,8.644 2.332,3.068 0,0"
             style="fill:#ffffff;fill-opacity:1;fill-rule:nonzero;stroke:none"
             id="path36" /></g><g
           id="g38"
           transform="translate(524.0815,613.8262)"><path
             d="M 0,0 C -0.598,-4.998 3.436,-14.856 -2.773,-16.289 -6.522,-17.163 -10.062,-15.347 -11.957,-13.863 -14.944,-11.527 -16.116,-15.423 -18.196,-13.17 -24.813,-6 -13.343,0.173 -12.13,5.892 -9.897,16.418 -7.243,39.166 -5.308,51.965 -2.8,68.547 -6.3,76.421 -1.56,78.328 2.335,79.908 5.199,75.374 7.971,74.688 10.745,73.99 16.94,76.317 17.676,71.569 18.453,66.54 13.837,61.892 8.784,51.76 3.731,41.644 0.414,3.466 0,0"
             style="fill:#ffffff;fill-opacity:1;fill-rule:nonzero;stroke:none"
             id="path40" /></g><g
           id="g42"
           transform="translate(502.5508,620.2861)"><path
             d="M 0,0 C 0.107,-4.924 3.263,-13.371 -1.219,-16.332 -2.753,-17.346 -5.997,-15.976 -9.048,-15.428 -12.271,-14.845 -12.205,-17.489 -15.209,-15.308 -19.451,-12.229 -13.842,-5.873 -12.325,-0.487 -10.523,5.893 -10.154,48.05 -10.432,57.42 -10.676,65.644 -16.656,69.033 -12.557,73.667 -8.476,78.282 -5.45,73.101 -2.827,73.205 -0.205,73.308 6.838,76.854 9.311,71.243 11.035,67.331 5.121,62.895 4.008,59.7 2.391,55.059 -0.108,4.925 0,0"
             style="fill:#ffffff;fill-opacity:1;fill-rule:nonzero;stroke:none"
             id="path44" /></g><g
           id="g46"
           transform="translate(482.2969,621.7729)"><path
             d="M 0,0 C 0.969,-4.626 3.993,-6.18 0.966,-14.117 0.175,-16.191 -2.902,-14.74 -4.833,-15.874 -6.729,-16.977 -6.926,-19.572 -9.51,-18.162 -15.035,-15.161 -11.17,-9.885 -10.739,-4.574 -10.227,1.745 -12.871,35.858 -14.784,44.657 -16.463,52.357 -22.02,58.452 -19.83,61.602 -16.889,65.833 -14.926,62.489 -12.553,63.004 -10.181,63.534 -5.703,66.85 -2.658,64.068 0.385,61.3 -2.731,52.822 -3.696,47.467 -5.762,36.001 -0.969,4.625 0,0"
             style="fill:#ffffff;fill-opacity:1;fill-rule:nonzero;stroke:none"
             id="path48" /></g><g
           id="g50"
           transform="translate(463.9497,602.0425)"><path
             d="M 0,0 C -0.378,-4.156 -4.564,-4.464 -6.239,-3.986 -13.517,-1.906 -10.319,11.228 -11.264,16.636 -12.526,23.855 -16.116,41.763 -18.022,52.854 -19.397,60.853 -23.536,64.064 -22.182,67.757 -20.901,71.259 -18.202,69.339 -15.649,70.956 -13.561,72.274 -11.876,74.565 -8.514,72.096 -5.15,69.628 -8.997,63.053 -8.771,59.737 -8.415,54.481 -1.875,22.979 -0.347,18.369 1.182,13.772 5.854,13.223 4.505,8.318 3.661,5.245 0.52,5.719 0,0"
             style="fill:#ffffff;fill-opacity:1;fill-rule:nonzero;stroke:none"
             id="path52" /></g><g
           id="g54"
           transform="translate(541.7573,704.2842)"><path
             d="M 0,0 C 0.313,-3.384 4.465,-10.062 0.693,-12.13 -4.679,-15.076 -5.547,-10.801 -8.838,-9.704 -11.438,-8.838 -16.385,-12.405 -17.329,-7.278 -18.542,-0.693 -14.383,-1.386 -11.019,1.366 -7.292,4.414 -2.693,30.551 -2.185,34.738 -1.676,38.925 -3.304,44.417 -0.718,46.154 1.737,47.811 2.632,45.256 5.872,44.109 8.146,43.304 11.953,44.487 12.758,41.853 13.853,38.271 9.945,35.916 8.205,33.52 6.466,31.125 -0.313,3.397 0,0"
             style="fill:#ffffff;fill-opacity:1;fill-rule:nonzero;stroke:none"
             id="path56" /></g><g
           id="g58"
           transform="translate(509.3462,711.1309)"><path
             d="M 0,0 C 0.604,-5.198 4.334,-7.897 2.413,-11.808 0.811,-15.073 -3.192,-14.424 -6.874,-14.071 -10.555,-13.718 -14.441,-13.546 -15.202,-10.159 -16.326,-5.125 -12.526,-5.367 -11.403,1.398 -10.52,6.717 -7.872,32.999 -8.083,37.718 -8.292,42.425 -10.983,48.153 -8.572,50.586 -6.289,52.88 -4.89,50.234 -1.28,49.6 1.253,49.167 5.042,51.202 6.359,48.458 8.149,44.728 4.458,41.373 3.059,38.387 1.656,35.402 -0.437,3.767 0,0"
             style="fill:#ffffff;fill-opacity:1;fill-rule:nonzero;stroke:none"
             id="path60" /></g><g
           id="g62"
           transform="translate(478.9912,692.4009)"><path
             d="M 0,0 C -1.032,-3.142 -4.117,-1.986 -8.311,-3.208 -11.597,-4.16 -13.159,-5.458 -15.092,-2.491 -17.698,1.522 -13.536,4.46 -13.411,10.661 -13.313,15.526 -14.395,39.383 -15.216,43.567 -16.036,47.738 -19.257,52.495 -17.378,54.994 -15.597,57.358 -13.967,55.171 -10.582,55.097 -8.208,55.051 -5.018,57.386 -3.448,55.105 -1.312,52.012 -4.239,48.524 -5.123,45.665 -6.007,42.819 -3.953,13.938 -3.049,10.642 -1.807,6.077 1.232,3.757 0,0"
             style="fill:#ffffff;fill-opacity:1;fill-rule:nonzero;stroke:none"
             id="path64" /></g><g
           id="g66"
           transform="translate(449.0464,678.1172)"><path
             d="M 0,0 C -2.783,-2.85 -7.39,-3.543 -9.476,-0.622 -11.141,1.713 -8.568,5.888 -9.249,10.639 -9.78,14.376 -13.713,32.459 -14.938,35.546 -16.159,38.633 -18.381,39.991 -17.591,42.371 -16.785,44.78 -14.786,43.649 -12.595,44.22 -10.626,44.713 -9.556,47.206 -7.001,46.139 -4.444,45.06 -6.289,40.77 -6.674,38.476 -7.061,36.182 -1.5,14.661 -0.318,12.244 1.311,8.926 6.932,9.531 6.412,4.679 5.963,0.489 1.633,1.671 0,0"
             style="fill:#ffffff;fill-opacity:1;fill-rule:nonzero;stroke:none"
             id="path68" /></g><g
           id="g70"
           transform="translate(554.0635,759.3887)"><path
             d="M 0,0 C 0.28,-1.723 2.469,-4.235 0.982,-7.006 -1.072,-10.845 -8.622,-8.809 -10.584,-6.439 -12.284,-4.383 -10.371,-1.247 -9.585,0.568 -8.8,2.369 -7.749,11.884 -7.946,15.037 -8.144,18.175 -10.269,19.947 -8.429,22.373 -7.191,24.008 -5.329,22.496 -3.007,22.415 -1.033,22.348 1.033,23.659 2.343,22.399 4.324,20.51 1.761,17.512 1.474,15.388 1.184,13.277 -0.44,2.708 0,0"
             style="fill:#ffffff;fill-opacity:1;fill-rule:nonzero;stroke:none"
             id="path72" /></g><g
           id="g74"
           transform="translate(591.2383,663.6299)"><path
             d="M 0,0 C -1.725,-1.854 -12.136,-15.568 -13.548,-18.49 -14.44,-20.337 -13.351,-24.234 -16.693,-25.922 -21.311,-28.252 -27.335,-21.229 -27.642,-17.604 -27.91,-14.479 -23.907,-12.733 -21.907,-11.509 -19.906,-10.285 -10.273,3.348 -8.329,6.528 -6.386,9.696 -6.914,15.217 -2.999,15.008 -0.559,14.861 -0.691,11.979 1.532,10.355 3.422,8.959 6.332,8.834 6.766,6.749 7.422,3.584 1.723,1.866 0,0"
             style="fill:#ffffff;fill-opacity:1;fill-rule:nonzero;stroke:none"
             id="path76" /></g><g
           id="g78"
           transform="translate(513.8433,774.4785)"><path
             d="M 0,0 C 0.238,-2.243 2.478,-5.629 0.8,-9.135 -1.518,-13.98 -9.477,-10.918 -11.483,-7.713 -13.219,-4.944 -11.072,-0.999 -10.175,1.297 -9.277,3.593 -9.272,11.168 -9.374,15.261 -9.475,19.354 -11.674,21.777 -9.632,24.81 -8.259,26.85 -6.332,24.781 -3.864,24.545 -1.767,24.34 0.473,25.906 1.826,24.212 3.867,21.637 1.038,17.903 0.657,15.164 0.276,12.439 -0.376,3.537 0,0"
             style="fill:#ffffff;fill-opacity:1;fill-rule:nonzero;stroke:none"
             id="path80" /></g><g
           id="g82"
           transform="translate(473.6147,752.4712)"><path
             d="M 0,0 C -1.66,-3.746 -8.537,-1.889 -10.414,0.392 -12.039,2.37 -10.471,5.439 -9.853,7.198 -9.235,8.966 -9.885,22.685 -10.214,25.734 -10.543,28.783 -12.537,30.481 -11.001,32.853 -9.968,34.456 -8.224,33.018 -6.135,32.976 -4.358,32.932 -2.567,34.232 -1.33,33.034 0.542,31.223 -1.617,28.279 -1.773,26.208 -1.93,24.146 -1.745,9.409 -1.217,6.776 -0.885,5.121 1.202,2.705 0,0"
             style="fill:#ffffff;fill-opacity:1;fill-rule:nonzero;stroke:none"
             id="path84" /></g><g
           id="g86"
           transform="translate(432.106,726.2974)"><path
             d="M 0,0 C -2.058,1.682 0.069,3.939 0.292,6.292 0.431,7.742 -0.746,17.965 -1.259,20.329 -1.773,22.704 -4.154,24.774 -3.029,26.717 -2.271,28.03 -0.678,27 1.103,27.083 2.617,27.145 4.042,28.257 5.186,27.385 6.915,26.071 5.306,23.655 5.329,22.027 5.353,20.409 6.18,9 6.537,6.825 6.891,4.639 9.182,3.86 8.366,1.665 7.239,-1.36 1.92,-1.566 0,0"
             style="fill:#ffffff;fill-opacity:1;fill-rule:nonzero;stroke:none"
             id="path88" /></g><g
           id="g90"
           transform="translate(548.4624,785.0923)"><path
             d="M 0,0 C -1.831,1.347 0.104,4.378 0.503,6.437 0.902,8.496 1.373,16.093 4.242,16.069 7.453,16.036 6.392,8.53 7.101,6.354 7.808,4.178 9.375,2.493 8.093,0.265 7.139,-1.391 1.834,-1.361 0,0"
             style="fill:#ffffff;fill-opacity:1;fill-rule:nonzero;stroke:none"
             id="path92" /></g><g
           id="g94"
           transform="translate(505.3662,802.0205)"><path
             d="M 0,0 C -2.213,1.724 0.136,5.283 0.693,7.798 1.252,10.312 1.146,21.444 4.679,21.314 8.627,21.175 7.337,10.147 8.139,7.442 8.94,4.737 10.814,2.61 9.163,-0.092 7.935,-2.109 2.21,-1.711 0,0"
             style="fill:#ffffff;fill-opacity:1;fill-rule:nonzero;stroke:none"
             id="path96" /></g><g
           id="g98"
           transform="translate(597.5464,672.4922)"><path
             d="M 0,0 C -2.245,-0.073 -5.157,5.902 -4.788,8.873 -4.415,11.854 -0.191,11.782 2.158,12.751 4.509,13.72 12.626,18.418 14.192,15.181 15.945,11.564 7.603,7.591 5.748,5.308 3.891,3.013 3.019,0.096 0,0"
             style="fill:#ffffff;fill-opacity:1;fill-rule:nonzero;stroke:none"
             id="path100" /></g><g
           id="g102"
           transform="translate(464.417,788.3989)"><path
             d="M 0,0 C -1.798,1.494 -0.113,5.262 0.167,7.746 0.447,10.229 0.526,19.365 3.246,19.511 6.287,19.687 5.641,10.64 6.417,8.082 7.192,5.524 8.756,3.601 7.648,0.853 6.824,-1.187 1.799,-1.495 0,0"
             style="fill:#ffffff;fill-opacity:1;fill-rule:nonzero;stroke:none"
             id="path104" /></g><g
           id="g106"
           transform="translate(430.1357,757.5444)"><path
             d="M 0,0 C -1.607,1.241 0.082,4.254 0.428,6.26 0.775,8.267 1.173,15.646 3.687,15.695 6.497,15.757 5.58,8.468 6.205,6.379 6.826,4.277 8.202,2.691 7.083,0.496 6.249,-1.144 1.604,-1.256 0,0"
             style="fill:#ffffff;fill-opacity:1;fill-rule:nonzero;stroke:none"
             id="path108" /></g><g
           id="g110"
           transform="translate(476.9463,566.8647)"><path
             d="M 0,0 C -0.692,3.046 -4.852,4.159 -6.065,6.065 -7.278,7.971 -9.877,15.076 -13.343,13.863 -16.809,12.65 -20.968,7.798 -20.102,1.386 -19.235,-5.026 -11.957,-12.997 -7.625,-10.051 -5.185,-8.392 0.867,-3.813 0,0"
             style="fill:#ffffff;fill-opacity:1;fill-rule:nonzero;stroke:none"
             id="path112" /></g><g
           id="g114"
           transform="translate(483.665,566.5601)"><path
             d="M 0,0 C -2.982,0.332 -12.096,-9.113 -12.262,-13.421 -12.427,-17.729 -3.977,-17.895 -1.491,-17.895 0.994,-17.895 3.977,-18.393 7.125,-17.067 9.081,-16.243 11.921,-8.246 10.264,-5.761 8.607,-3.275 2.398,-0.266 0,0"
             style="fill:#ffffff;fill-opacity:1;fill-rule:nonzero;stroke:none"
             id="path116" /></g><g
           id="g118"
           transform="translate(479.8623,596.8926)"><path
             d="M 0,0 C -1.14,2.833 -3.906,2.817 -6.252,2.334 -8.599,1.852 -8.375,3.733 -10.87,2.902 -12.325,2.417 -21.455,-1.646 -17.302,-8.522 -13.149,-15.397 -10.669,-17.113 -10.048,-18.942 -9.428,-20.771 -5.541,-28.851 -0.13,-28.521 5.281,-28.192 0.485,-13.927 0.572,-12.185 0.725,-9.121 1.8,-4.473 0,0"
             style="fill:#ffffff;fill-opacity:1;fill-rule:nonzero;stroke:none"
             id="path120" /></g><g
           id="g122"
           transform="translate(497.0293,598.4033)"><path
             d="M 0,0 C -2.448,0.816 -7.345,-0.49 -9.14,1.958 -10.935,4.407 -17.104,0.891 -16.386,-0.616 -15.668,-2.122 -13.22,-8.813 -13.71,-13.383 -14.2,-17.953 -15.122,-32.538 -10.552,-31.885 -5.982,-31.232 -2.552,-36.639 0.712,-32.232 3.976,-27.825 9.203,-17.329 7.507,-15.832 5.875,-14.39 5.416,-8.076 5.712,-5.875 6.084,-3.119 0.979,-0.327 0,0"
             style="fill:#ffffff;fill-opacity:1;fill-rule:nonzero;stroke:none"
             id="path124" /></g><g
           id="g126"
           transform="translate(507.7832,595.4214)"><path
             d="M 0,0 C 2.746,1.985 6.062,3.407 10.649,-0.712 11.811,-1.756 12.801,0.639 15.164,0.443 17.528,0.247 19.894,-6.068 23.003,-7.516 26.113,-8.963 26.55,-8.777 25.187,-13.985 23.446,-20.64 20.576,-20.402 13.88,-21.207 7.244,-22.005 12.26,-16.144 4.931,-16.386 -3.561,-16.667 -4.132,-8.836 -2.67,-5.558 -1.45,-2.82 -1.266,-0.915 0,0"
             style="fill:#ffffff;fill-opacity:1;fill-rule:nonzero;stroke:none"
             id="path128" /></g><g
           id="g130"
           transform="translate(507.9653,578.1284)"><path
             d="M 0,0 C -3.23,-0.663 -3.813,-9.185 -8.145,-12.13 -12.477,-15.076 -14.037,-17.676 -12.13,-22.875 -10.224,-28.073 -5.719,-28.247 1.56,-22.701 8.838,-17.156 12.166,-11.475 10.397,-8.318 7.971,-3.986 6.758,1.386 0,0"
             style="fill:#ffffff;fill-opacity:1;fill-rule:nonzero;stroke:none"
             id="path132" /></g><g
           id="g134"
           transform="translate(805.9395,637.6924)"><path
             d="M 0,0 -20.216,49.165 -40.593,0 Z M -71.806,-29.757 -32.507,61.294 C -29.919,67.602 -25.713,70.836 -19.73,70.836 -13.746,70.836 -9.542,67.764 -6.953,61.294 L 32.021,-29.111 C 32.991,-31.698 33.316,-33.477 33.316,-34.608 33.316,-40.106 29.596,-43.989 24.099,-43.989 19.893,-43.989 16.658,-41.563 14.88,-36.872 L 5.499,-14.878 H -46.252 L -55.471,-36.872 C -57.25,-41.24 -60.16,-43.989 -64.204,-43.989 -69.54,-43.989 -73.261,-40.268 -73.261,-35.255 -73.261,-33.8 -72.776,-32.021 -71.806,-29.757"
             style="fill:#ffffff;fill-opacity:1;fill-rule:nonzero;stroke:none"
             id="path136" /></g><g
           id="g138"
           transform="translate(918.9873,650.7915)"><path
             d="M 0,0 C 14.23,0 22.964,8.735 22.964,20.539 22.964,32.508 14.23,41.24 0,41.24 H -27.979 V 0 Z M -46.578,-47.708 V 47.709 C -46.578,53.047 -42.695,56.928 -37.197,56.928 H 2.264 C 25.713,56.928 41.563,42.21 41.563,21.509 41.563,5.176 31.374,-7.438 15.848,-11.642 L 37.844,-41.24 C 39.461,-43.342 40.593,-45.767 40.593,-48.193 40.593,-53.367 37.033,-57.088 31.859,-57.088 28.625,-57.088 26.036,-55.471 24.258,-53.043 L -4.206,-14.554 H -27.979 V -47.708 C -27.979,-53.205 -31.86,-57.088 -37.197,-57.088 -42.695,-57.088 -46.578,-53.205 -46.578,-47.708"
             style="fill:#ffffff;fill-opacity:1;fill-rule:nonzero;stroke:none"
             id="path140" /></g><g
           id="g142"
           transform="translate(1000.0098,696.2373)"><path
             d="M 0,0 C 0,7.278 5.176,12.291 12.292,12.291 16.496,12.291 20.377,10.027 22.966,6.146 L 80.539,-72.453 V 3.396 C 80.539,8.572 84.26,12.291 89.596,12.291 94.934,12.291 98.652,8.572 98.652,3.396 V -91.051 C 98.652,-97.681 93.962,-102.534 87.494,-102.534 83.126,-102.534 79.407,-99.946 76.82,-96.226 L 18.275,-16.01 V -93.315 C 18.275,-98.813 14.556,-102.534 9.218,-102.534 3.721,-102.534 0,-98.813 0,-93.315 Z"
             style="fill:#ffffff;fill-opacity:1;fill-rule:nonzero;stroke:none"
             id="path144" /></g><g
           id="g146"
           transform="translate(1205.0771,637.6924)"><path
             d="M 0,0 -20.216,49.165 -40.594,0 Z M -71.807,-29.757 -32.507,61.294 C -29.92,67.602 -25.714,70.836 -19.731,70.836 -13.746,70.836 -9.542,67.764 -6.953,61.294 L 32.021,-29.111 C 32.993,-31.698 33.316,-33.477 33.316,-34.608 33.316,-40.106 29.596,-43.989 24.098,-43.989 19.892,-43.989 16.658,-41.563 14.879,-36.872 L 5.499,-14.878 H -46.253 L -55.472,-36.872 C -57.25,-41.24 -60.162,-43.989 -64.205,-43.989 -69.541,-43.989 -73.262,-40.268 -73.262,-35.255 -73.262,-33.8 -72.776,-32.021 -71.807,-29.757"
             style="fill:#ffffff;fill-opacity:1;fill-rule:nonzero;stroke:none"
             id="path148" /></g><g
           id="g150"
           transform="translate(1320.873,610.0366)"><path
             d="M 0,0 C 23.128,0 40.432,17.791 40.432,41.078 40.432,64.366 23.128,82.156 0,82.156 -22.965,82.156 -40.43,64.366 -40.43,41.078 -40.43,17.791 -22.965,0 0,0 M 0.325,99.3 C 33.802,99.3 59.03,74.072 59.03,41.402 59.03,8.735 33.155,-17.141 -0.323,-17.141 -33.638,-17.141 -59.028,8.089 -59.028,40.755 -59.028,73.425 -32.991,99.3 0.325,99.3"
             style="fill:#ffffff;fill-opacity:1;fill-rule:nonzero;stroke:none"
             id="path152" /></g><g
           id="g154"
           transform="translate(1510.8994,699.3096)"><path
             d="M 0,0 V -58.381 C 0,-86.847 -19.569,-106.414 -47.223,-106.414 -74.717,-106.414 -93.801,-87.494 -93.801,-59.028 V 0 C -93.801,5.5 -89.918,9.38 -84.259,9.38 -78.759,9.38 -74.879,5.5 -74.879,0 V -58.543 C -74.879,-76.98 -63.073,-89.273 -46.576,-89.273 -29.92,-89.273 -18.273,-76.98 -18.273,-58.543 V 0 C -18.273,5.176 -14.231,9.219 -9.058,9.219 -3.881,9.219 0,5.176 0,0"
             style="fill:#ffffff;fill-opacity:1;fill-rule:nonzero;stroke:none"
             id="path156" /></g><g
           id="g158"
           transform="translate(1632.6777,699.7944)"><path
             d="M 0,0 C 0,-4.853 -3.396,-8.248 -8.086,-8.248 H -36.065 V -96.71 C -36.065,-102.208 -39.946,-106.091 -45.282,-106.091 -50.781,-106.091 -54.662,-102.208 -54.662,-96.71 V -8.248 H -82.479 C -87.33,-8.248 -90.565,-4.853 -90.565,0 -90.565,4.691 -87.33,7.925 -82.479,7.925 H -8.086 C -3.396,7.925 0,4.691 0,0"
             style="fill:#ffffff;fill-opacity:1;fill-rule:nonzero;stroke:none"
             id="path160" /></g><g
           id="g162"
           transform="translate(748.4277,497.4395)"><path
             d="M 0,0 C -3.24,0 -6.037,0.709 -8.39,2.126 -10.741,3.545 -12.557,5.522 -13.834,8.061 -15.111,10.602 -15.749,13.538 -15.749,16.871 -15.749,20.235 -15.111,23.188 -13.834,25.727 -12.557,28.266 -10.741,30.253 -8.39,31.687 -6.037,33.119 -3.24,33.835 0,33.835 3.832,33.835 6.964,32.902 9.394,31.033 11.824,29.163 13.366,26.545 14.021,23.181 H 8.506 C 8.069,25.081 7.135,26.592 5.702,27.714 4.268,28.834 2.353,29.396 -0.047,29.396 -3.318,29.396 -5.904,28.281 -7.805,26.054 -9.705,23.827 -10.655,20.766 -10.655,16.871 -10.655,13.007 -9.705,9.971 -7.805,7.759 -5.904,5.545 -3.318,4.44 -0.047,4.44 2.353,4.44 4.268,4.969 5.702,6.028 7.135,7.087 8.069,8.536 8.506,10.375 H 14.021 C 13.366,7.135 11.824,4.597 9.394,2.758 6.964,0.919 3.832,0 0,0"
             style="fill:#ffffff;fill-opacity:1;fill-rule:nonzero;stroke:none"
             id="path164" /></g><g
           id="g166"
           transform="translate(769.2236,498.001)"><path
             d="M 0,0 V 32.713 H 4.954 V 18.692 H 20.796 V 32.713 H 25.751 V 0 H 20.796 V 14.627 H 4.954 V 0 Z"
             style="fill:#ffffff;fill-opacity:1;fill-rule:nonzero;stroke:none"
             id="path168" /></g><path
           d="M 802.919,530.714 H 807.873 V 498.001 H 802.919 Z"
           style="fill:#ffffff;fill-opacity:1;fill-rule:nonzero;stroke:none"
           id="path170" /><g
           id="g172"
           transform="translate(820.7705,514.9194)"><path
             d="M 0,0 H 6.029 C 8.272,0 9.915,0.543 10.959,1.635 12.003,2.725 12.525,4.142 12.525,5.887 12.525,7.631 12.011,9.027 10.983,10.071 9.954,11.113 8.287,11.636 5.981,11.636 H 0 Z M -4.953,-16.918 V 15.794 H 6.309 C 8.896,15.794 11.021,15.359 12.688,14.486 14.354,13.613 15.594,12.438 16.403,10.959 17.214,9.478 17.619,7.834 17.619,6.028 17.619,4.002 17.082,2.164 16.006,0.513 14.932,-1.139 13.257,-2.322 10.983,-3.039 L 17.946,-16.918 H 12.198 L 5.842,-3.741 H 0 V -16.918 Z"
             style="fill:#ffffff;fill-opacity:1;fill-rule:nonzero;stroke:none"
             id="path174" /></g><g
           id="g176"
           transform="translate(857.7842,497.4395)"><path
             d="M 0,0 C -2.337,0 -4.448,0.46 -6.333,1.379 -8.218,2.297 -9.714,3.708 -10.819,5.608 -11.927,7.508 -12.479,9.923 -12.479,12.852 V 33.274 H -7.525 V 12.806 C -7.525,9.938 -6.84,7.835 -5.469,6.496 -4.099,5.157 -2.244,4.486 0.093,4.486 2.397,4.486 4.236,5.157 5.607,6.496 6.978,7.835 7.664,9.938 7.664,12.806 V 33.274 H 12.618 V 12.852 C 12.618,9.923 12.049,7.508 10.912,5.608 9.774,3.708 8.248,2.297 6.332,1.379 4.415,0.46 2.305,0 0,0"
             style="fill:#ffffff;fill-opacity:1;fill-rule:nonzero;stroke:none"
             id="path178" /></g><g
           id="g180"
           transform="translate(883.0195,514.9194)"><path
             d="M 0,0 H 6.03 C 8.271,0 9.915,0.543 10.961,1.635 12.003,2.725 12.523,4.142 12.523,5.887 12.523,7.631 12.011,9.027 10.983,10.071 9.957,11.113 8.287,11.636 5.982,11.636 H 0 Z M -4.953,-16.918 V 15.794 H 6.31 C 8.896,15.794 11.021,15.359 12.688,14.486 14.357,13.613 15.593,12.438 16.403,10.959 17.213,9.478 17.62,7.834 17.62,6.028 17.62,4.002 17.08,2.164 16.008,0.513 14.932,-1.139 13.258,-2.322 10.983,-3.039 L 17.947,-16.918 H 12.196 L 5.842,-3.741 H 0 V -16.918 Z"
             style="fill:#ffffff;fill-opacity:1;fill-rule:nonzero;stroke:none"
             id="path182" /></g><g
           id="g184"
           transform="translate(921.9971,497.4395)"><path
             d="M 0,0 C -3.085,0 -5.779,0.702 -8.086,2.104 -10.391,3.505 -12.182,5.467 -13.46,7.992 -14.738,10.516 -15.377,13.46 -15.377,16.824 -15.377,20.157 -14.721,23.103 -13.412,25.657 -12.104,28.212 -10.242,30.213 -7.827,31.662 -5.414,33.111 -2.556,33.835 0.747,33.835 4.485,33.835 7.601,32.932 10.094,31.126 12.587,29.317 14.207,26.826 14.954,23.648 H 9.346 C 8.848,25.393 7.867,26.764 6.402,27.76 4.938,28.756 3.054,29.256 0.747,29.256 -2.68,29.256 -5.374,28.15 -7.337,25.938 -9.301,23.725 -10.282,20.672 -10.282,16.778 -10.282,12.884 -9.316,9.845 -7.384,7.665 -5.452,5.484 -2.883,4.393 0.327,4.393 3.567,4.393 6.005,5.312 7.641,7.15 9.275,8.989 10.234,11.435 10.516,14.488 H 1.635 V 18.32 H 15.515 V 0.562 H 10.981 L 10.562,5.374 C 9.47,3.661 8.101,2.337 6.448,1.401 4.798,0.468 2.646,0 0,0"
             style="fill:#ffffff;fill-opacity:1;fill-rule:nonzero;stroke:none"
             id="path186" /></g><path
           d="M 944.851,530.714 H 949.804 V 498.001 H 944.851 Z"
           style="fill:#ffffff;fill-opacity:1;fill-rule:nonzero;stroke:none"
           id="path188" /><g
           id="g190"
           transform="translate(957.749,498.001)"><path
             d="M 0,0 V 32.713 H 20.796 V 28.695 H 4.954 V 18.506 H 19.395 V 14.581 H 4.954 V 4.02 H 20.796 V 0 Z"
             style="fill:#ffffff;fill-opacity:1;fill-rule:nonzero;stroke:none"
             id="path192" /></g><g
           id="g194"
           transform="translate(1003.7812,502.207)"><path
             d="M 0,0 H 5.468 C 8.429,0 10.773,0.482 12.502,1.449 14.23,2.413 15.476,3.801 16.24,5.607 17.003,7.414 17.385,9.58 17.385,12.104 17.385,14.627 17.003,16.808 16.24,18.647 15.476,20.484 14.23,21.895 12.502,22.876 10.773,23.857 8.429,24.348 5.468,24.348 H 0 Z M -4.953,-4.206 V 28.507 H 5.656 C 9.487,28.507 12.643,27.837 15.118,26.497 17.596,25.158 19.433,23.264 20.633,20.819 21.833,18.373 22.432,15.468 22.432,12.104 22.432,8.771 21.833,5.88 20.633,3.435 19.433,0.988 17.596,-0.896 15.118,-2.222 12.643,-3.545 9.487,-4.206 5.656,-4.206 Z"
             style="fill:#ffffff;fill-opacity:1;fill-rule:nonzero;stroke:none"
             id="path196" /></g><g
           id="g198"
           transform="translate(1032.9902,498.001)"><path
             d="M 0,0 V 32.713 H 20.796 V 28.695 H 4.954 V 18.506 H 19.395 V 14.581 H 4.954 V 4.02 H 20.796 V 0 Z"
             style="fill:#ffffff;fill-opacity:1;fill-rule:nonzero;stroke:none"
             id="path200" /></g><g
           id="g202"
           transform="translate(1074.0713,498.001)"><path
             d="M 0,0 V 32.713 H 4.953 V 3.925 H 19.814 V 0 Z"
             style="fill:#ffffff;fill-opacity:1;fill-rule:nonzero;stroke:none"
             id="path204" /></g><g
           id="g206"
           transform="translate(1107.8594,509.918)"><path
             d="M 0,0 H 10.563 L 5.28,14.909 Z M -9.439,-11.917 2.618,20.796 H 8.038 L 20.003,-11.917 H 14.768 L 11.965,-3.927 H -1.401 L -4.207,-11.917 Z"
             style="fill:#ffffff;fill-opacity:1;fill-rule:nonzero;stroke:none"
             id="path208" /></g><g
           id="g210"
           transform="translate(1146.835,498.001)"><path
             d="M 0,0 V 32.713 H 5.842 L 16.916,10.936 27.946,32.713 H 33.788 V 0 H 28.834 V 24.162 L 18.833,4.674 H 15.002 L 4.953,24.114 V 0 Z"
             style="fill:#ffffff;fill-opacity:1;fill-rule:nonzero;stroke:none"
             id="path212" /></g><g
           id="g214"
           transform="translate(1195.9043,509.918)"><path
             d="M 0,0 H 10.563 L 5.28,14.909 Z M -9.439,-11.917 2.618,20.796 H 8.038 L 20.003,-11.917 H 14.768 L 11.965,-3.927 H -1.401 L -4.207,-11.917 Z"
             style="fill:#ffffff;fill-opacity:1;fill-rule:nonzero;stroke:none"
             id="path216" /></g><path
           d="M 1221.795,530.714 H 1226.748 V 498.001 H 1221.795 Z"
           style="fill:#ffffff;fill-opacity:1;fill-rule:nonzero;stroke:none"
           id="path218" /><g
           id="g220"
           transform="translate(1234.6914,498.001)"><path
             d="M 0,0 V 32.713 H 4.954 L 21.357,8.085 V 32.713 H 26.311 V 0 H 21.357 L 4.954,24.629 V 0 Z"
             style="fill:#ffffff;fill-opacity:1;fill-rule:nonzero;stroke:none"
             id="path222" /></g><g
           id="g224"
           transform="translate(1282.0342,498.001)"><path
             d="M 0,0 V 32.713 H 20.796 V 28.695 H 4.953 V 18.506 H 19.395 V 14.581 H 4.953 V 4.02 H 20.796 V 0 Z"
             style="fill:#ffffff;fill-opacity:1;fill-rule:nonzero;stroke:none"
             id="path226" /></g><g
           id="g228"
           transform="translate(1317.6914,498.001)"><path
             d="M 0,0 V 28.695 H -9.674 V 32.713 H 14.581 V 28.695 H 4.953 V 0 Z"
             style="fill:#ffffff;fill-opacity:1;fill-rule:nonzero;stroke:none"
             id="path230" /></g><g
           id="g232"
           transform="translate(1356.2471,502.207)"><path
             d="M 0,0 H 5.467 C 8.428,0 10.772,0.482 12.501,1.449 14.229,2.413 15.475,3.801 16.239,5.607 17.002,7.414 17.384,9.58 17.384,12.104 17.384,14.627 17.002,16.808 16.239,18.647 15.475,20.484 14.229,21.895 12.501,22.876 10.772,23.857 8.428,24.348 5.467,24.348 H 0 Z M -4.954,-4.206 V 28.507 H 5.655 C 9.486,28.507 12.642,27.837 15.117,26.497 17.596,25.158 19.433,23.264 20.632,20.819 21.832,18.373 22.431,15.468 22.431,12.104 22.431,8.771 21.832,5.88 20.632,3.435 19.433,0.988 17.596,-0.896 15.117,-2.222 12.642,-3.545 9.486,-4.206 5.655,-4.206 Z"
             style="fill:#ffffff;fill-opacity:1;fill-rule:nonzero;stroke:none"
             id="path234" /></g><g
           id="g236"
           transform="translate(1397.7002,497.4395)"><path
             d="M 0,0 C -2.337,0 -4.448,0.46 -6.333,1.379 -8.219,2.297 -9.714,3.708 -10.82,5.608 -11.925,7.508 -12.479,9.923 -12.479,12.852 V 33.274 H -7.525 V 12.806 C -7.525,9.938 -6.84,7.835 -5.47,6.496 -4.099,5.157 -2.244,4.486 0.093,4.486 2.397,4.486 4.236,5.157 5.607,6.496 6.979,7.835 7.663,9.938 7.663,12.806 V 33.274 H 12.617 V 12.852 C 12.617,9.923 12.049,7.508 10.911,5.608 9.774,3.708 8.247,2.297 6.332,1.379 4.415,0.46 2.305,0 0,0"
             style="fill:#ffffff;fill-opacity:1;fill-rule:nonzero;stroke:none"
             id="path238" /></g><g
           id="g240"
           transform="translate(1436.0215,515.2461)"><path
             d="M 0,0 H 6.262 C 8.599,0 10.272,0.506 11.286,1.518 12.298,2.529 12.806,3.908 12.806,5.654 12.806,7.46 12.298,8.871 11.286,9.883 10.272,10.896 8.599,11.402 6.262,11.402 H 0 Z M -4.954,-17.245 V 15.468 H 6.496 C 9.05,15.468 11.17,15.04 12.851,14.183 14.534,13.327 15.787,12.157 16.614,10.678 17.439,9.198 17.853,7.523 17.853,5.654 17.853,3.877 17.455,2.25 16.66,0.771 15.867,-0.709 14.627,-1.886 12.946,-2.757 11.264,-3.63 9.112,-4.067 6.496,-4.067 H 0 V -17.245 Z"
             style="fill:#ffffff;fill-opacity:1;fill-rule:nonzero;stroke:none"
             id="path242" /></g><g
           id="g244"
           transform="translate(1475.1855,501.8799)"><path
             d="M 0,0 C 2.243,0 4.198,0.498 5.864,1.494 7.532,2.491 8.833,3.925 9.767,5.794 10.702,7.663 11.17,9.89 11.17,12.479 11.17,15.063 10.702,17.292 9.767,19.161 8.833,21.03 7.532,22.462 5.864,23.46 4.198,24.457 2.243,24.955 0,24.955 -2.244,24.955 -4.207,24.457 -5.89,23.46 -7.57,22.462 -8.873,21.03 -9.792,19.161 -10.71,17.292 -11.17,15.063 -11.17,12.479 -11.17,9.89 -10.71,7.663 -9.792,5.794 -8.873,3.925 -7.57,2.491 -5.89,1.494 -4.207,0.498 -2.244,0 0,0 M 0,-4.44 C -3.24,-4.44 -6.076,-3.724 -8.506,-2.29 -10.937,-0.857 -12.836,1.128 -14.207,3.668 -15.578,6.207 -16.265,9.143 -16.265,12.479 -16.265,15.812 -15.578,18.748 -14.207,21.287 -12.836,23.825 -10.937,25.812 -8.506,27.246 -6.076,28.678 -3.24,29.395 0,29.395 3.24,29.395 6.075,28.678 8.506,27.246 10.936,25.812 12.828,23.825 14.184,21.287 15.538,18.748 16.217,15.812 16.217,12.479 16.217,9.143 15.538,6.207 14.184,3.668 12.828,1.128 10.936,-0.857 8.506,-2.29 6.075,-3.724 3.24,-4.44 0,-4.44"
             style="fill:#ffffff;fill-opacity:1;fill-rule:nonzero;stroke:none"
             id="path246" /></g><path
           d="M 1498.226,530.714 H 1503.179 V 498.001 H 1498.226 Z"
           style="fill:#ffffff;fill-opacity:1;fill-rule:nonzero;stroke:none"
           id="path248" /><g
           id="g250"
           transform="translate(1525.3291,497.4395)"><path
             d="M 0,0 C -3.085,0 -5.779,0.702 -8.086,2.104 -10.391,3.505 -12.182,5.467 -13.46,7.992 -14.737,10.516 -15.377,13.46 -15.377,16.824 -15.377,20.157 -14.721,23.103 -13.412,25.657 -12.104,28.212 -10.242,30.213 -7.827,31.662 -5.414,33.111 -2.556,33.835 0.747,33.835 4.486,33.835 7.601,32.932 10.094,31.126 12.587,29.317 14.207,26.826 14.954,23.648 H 9.347 C 8.849,25.393 7.867,26.764 6.402,27.76 4.938,28.756 3.054,29.256 0.747,29.256 -2.68,29.256 -5.374,28.15 -7.337,25.938 -9.301,23.725 -10.282,20.672 -10.282,16.778 -10.282,12.884 -9.316,9.845 -7.384,7.665 -5.452,5.484 -2.883,4.393 0.327,4.393 3.567,4.393 6.005,5.312 7.641,7.15 9.276,8.989 10.234,11.435 10.516,14.488 H 1.636 V 18.32 H 15.516 V 0.562 H 10.981 L 10.562,5.374 C 9.47,3.661 8.101,2.337 6.448,1.401 4.798,0.468 2.647,0 0,0"
             style="fill:#ffffff;fill-opacity:1;fill-rule:nonzero;stroke:none"
             id="path252" /></g><g
           id="g254"
           transform="translate(1548.1826,498.001)"><path
             d="M 0,0 V 32.713 H 4.954 L 21.357,8.085 V 32.713 H 26.311 V 0 H 21.357 L 4.954,24.629 V 0 Z"
             style="fill:#ffffff;fill-opacity:1;fill-rule:nonzero;stroke:none"
             id="path256" /></g><g
           id="g258"
           transform="translate(1582.4385,498.001)"><path
             d="M 0,0 V 32.713 H 20.796 V 28.695 H 4.954 V 18.506 H 19.395 V 14.581 H 4.954 V 4.02 H 20.796 V 0 Z"
             style="fill:#ffffff;fill-opacity:1;fill-rule:nonzero;stroke:none"
             id="path260" /></g><g
           id="g262"
           transform="translate(1618.0957,498.001)"><path
             d="M 0,0 V 28.695 H -9.674 V 32.713 H 14.582 V 28.695 H 4.954 V 0 Z"
             style="fill:#ffffff;fill-opacity:1;fill-rule:nonzero;stroke:none"
             id="path264" /></g><g
           id="g266"
           transform="translate(762.7793,776.3418)"><path
             d="M 0,0 C 19.439,0 33.236,13.545 33.236,31.355 33.236,49.29 19.439,62.71 0,62.71 H -15.678 V 0 Z M -30.101,68.103 C -30.101,72.242 -27.091,75.252 -22.826,75.252 H -0.377 C 27.843,75.252 47.659,56.564 47.659,31.606 47.659,6.647 27.341,-12.542 -0.878,-12.542 H -22.826 C -27.091,-12.542 -30.101,-9.532 -30.101,-5.268 Z"
             style="fill:#ffffff;fill-opacity:1;fill-rule:nonzero;stroke:none"
             id="path268" /></g><g
           id="g270"
           transform="translate(856.0898,775.2134)"><path
             d="M 0,0 C 11.79,0 20.569,9.03 20.569,20.819 20.569,32.483 11.79,41.514 0,41.514 -11.663,41.514 -20.568,32.483 -20.568,20.819 -20.568,9.03 -11.663,0 0,0 M 0.251,54.181 C 19.816,54.181 34.365,39.883 34.365,21.07 34.365,2.257 19.315,-12.667 -0.25,-12.667 -19.815,-12.667 -34.364,1.756 -34.364,20.569 -34.364,39.382 -19.314,54.181 0.251,54.181"
             style="fill:#ffffff;fill-opacity:1;fill-rule:nonzero;stroke:none"
             id="path272" /></g><g
           id="g274"
           transform="translate(935.1035,829.3945)"><path
             d="M 0,0 C 10.786,0 17.183,-4.264 20.067,-6.522 22.199,-8.027 23.704,-10.284 23.704,-12.542 23.704,-16.179 21.07,-18.938 17.309,-18.938 15.803,-18.938 14.298,-18.186 13.044,-17.308 10.786,-15.552 6.396,-12.667 -0.251,-12.667 -11.915,-12.667 -20.819,-21.698 -20.819,-33.362 -20.819,-45.151 -11.915,-54.181 -0.251,-54.181 7.149,-54.181 11.79,-50.669 13.797,-48.914 15.051,-48.036 16.431,-47.283 17.936,-47.283 21.572,-47.283 24.081,-49.917 24.081,-53.554 24.081,-55.687 22.826,-57.693 21.196,-59.073 18.187,-61.707 10.912,-66.849 -0.501,-66.849 -20.067,-66.849 -34.615,-52.425 -34.615,-33.612 -34.615,-14.799 -19.565,0 0,0"
             style="fill:#ffffff;fill-opacity:1;fill-rule:nonzero;stroke:none"
             id="path276" /></g><g
           id="g278"
           transform="translate(970.4707,828.1401)"><path
             d="M 0,0 H 7.525 V 9.783 C 7.525,13.796 10.41,16.556 14.424,16.556 18.562,16.556 21.322,13.796 21.322,9.783 V 0 H 39.006 C 42.393,0 44.524,-2.257 44.524,-5.518 44.524,-8.779 42.393,-11.037 39.006,-11.037 H 21.322 V -42.015 C 21.322,-49.415 24.959,-52.927 31.104,-52.927 35.118,-52.927 37.25,-52.049 38.379,-52.049 41.891,-52.049 44.399,-54.181 44.399,-57.693 44.399,-60.828 42.267,-62.96 39.508,-63.964 37.125,-64.842 33.487,-65.594 27.969,-65.594 15.553,-65.594 7.525,-58.571 7.525,-45.151 V -11.037 H 0 C -3.386,-11.037 -5.644,-8.779 -5.644,-5.518 -5.644,-2.257 -3.386,0 0,0"
             style="fill:#ffffff;fill-opacity:1;fill-rule:nonzero;stroke:none"
             id="path280" /></g><g
           id="g282"
           transform="translate(1074.4434,802.6802)"><path
             d="M 0,0 C -1.505,9.156 -9.281,16.305 -18.437,16.305 -28.596,16.305 -36.497,9.406 -38.379,0 Z M -18.187,26.714 C -0.878,26.714 13.169,12.667 13.169,-2.383 13.169,-6.271 11.037,-8.779 7.148,-8.779 H -38.504 C -37.752,-20.318 -29.098,-28.094 -17.559,-28.094 -8.654,-28.094 -3.889,-23.83 -0.377,-20.569 0.752,-19.691 2.132,-18.938 3.637,-18.938 6.897,-18.938 9.281,-21.196 9.281,-24.457 9.281,-26.589 8.026,-28.345 6.396,-29.85 3.01,-33.487 -4.767,-40.134 -18.437,-40.134 -38.002,-40.134 -52.551,-25.711 -52.551,-6.898 -52.551,11.915 -37.626,26.714 -18.187,26.714"
             style="fill:#ffffff;fill-opacity:1;fill-rule:nonzero;stroke:none"
             id="path284" /></g><g
           id="g286"
           transform="translate(1160.4805,821.8691)"><path
             d="M 0,0 V -52.3 C 0,-56.063 -2.634,-58.696 -6.396,-58.696 -10.159,-58.696 -12.793,-56.063 -12.793,-52.3 V -46.656 C -17.434,-55.185 -26.088,-59.323 -35.494,-59.323 -49.165,-59.323 -60.202,-49.792 -60.202,-31.48 V 0 C -60.202,4.139 -57.317,6.898 -53.304,6.898 -49.165,6.898 -46.405,4.139 -46.405,0 V -26.965 C -46.405,-40.887 -39.382,-46.656 -30.979,-46.656 -21.572,-46.656 -13.797,-40.761 -13.797,-25.711 V 0 C -13.797,4.139 -10.912,6.898 -6.898,6.898 -2.76,6.898 0,4.139 0,0"
             style="fill:#ffffff;fill-opacity:1;fill-rule:nonzero;stroke:none"
             id="path288" /></g><g
           id="g290"
           transform="translate(1178.0381,822.7476)"><path
             d="M 0,0 C 0,3.637 2.508,6.02 6.146,6.02 9.782,6.02 12.291,3.637 12.291,0 L 12.542,-8.027 C 16.681,1.254 23.955,6.647 33.11,6.647 37.249,6.647 40.26,3.762 40.26,-0.251 40.26,-4.515 37.249,-7.4 33.11,-7.4 21.446,-7.4 13.796,-14.674 13.796,-30.227 V -52.677 C 13.796,-56.69 11.037,-59.575 6.897,-59.575 2.885,-59.575 0,-56.69 0,-52.677 Z"
             style="fill:#ffffff;fill-opacity:1;fill-rule:nonzero;stroke:none"
             id="path292" /></g><g
           id="g294"
           transform="translate(1311.1055,797.2871)"><path
             d="M 0,0 -15.678,38.127 -31.48,0 Z M -55.687,-23.077 -25.21,47.534 C -23.203,52.425 -19.942,54.934 -15.302,54.934 -10.661,54.934 -7.4,52.551 -5.394,47.534 L 24.833,-22.576 C 25.585,-24.582 25.836,-25.962 25.836,-26.84 25.836,-31.104 22.951,-34.114 18.687,-34.114 15.427,-34.114 12.918,-32.233 11.538,-28.596 L 4.264,-11.539 H -35.87 L -43.02,-28.596 C -44.398,-31.982 -46.656,-34.114 -49.792,-34.114 -53.931,-34.114 -56.815,-31.229 -56.815,-27.341 -56.815,-26.213 -56.439,-24.833 -55.687,-23.077"
             style="fill:#ffffff;fill-opacity:1;fill-rule:nonzero;stroke:none"
             id="path296" /></g><g
           id="g298"
           transform="translate(1407.8037,801.5513)"><path
             d="M 0,0 V -31.48 C 0,-35.494 -2.759,-38.378 -6.898,-38.378 -10.911,-38.378 -13.796,-35.494 -13.796,-31.48 V -4.39 C -13.796,9.407 -20.819,15.176 -29.223,15.176 -38.378,15.176 -46.279,9.532 -46.405,-4.515 V -31.48 C -46.405,-35.494 -49.164,-38.378 -53.304,-38.378 -57.316,-38.378 -60.201,-35.494 -60.201,-31.48 V 43.897 C -60.201,47.911 -57.316,50.67 -53.304,50.67 -49.164,50.67 -46.405,47.911 -46.405,43.897 V 16.054 C -41.765,23.955 -33.737,27.843 -24.708,27.843 -11.162,27.843 0,18.437 0,0"
             style="fill:#ffffff;fill-opacity:1;fill-rule:nonzero;stroke:none"
             id="path300" /></g><g
           id="g302"
           transform="translate(1439.1582,845.3228)"><path
             d="M 0,0 V -75.001 C 0,-79.265 -2.885,-82.15 -7.024,-82.15 -11.163,-82.15 -14.048,-79.265 -14.048,-75.001 V 0 C -14.048,4.014 -11.163,6.898 -7.024,6.898 -2.885,6.898 0,4.014 0,0"
             style="fill:#ffffff;fill-opacity:1;fill-rule:nonzero;stroke:none"
             id="path304" /></g><g
           id="g306"
           transform="translate(1498.7314,782.7383)"><path
             d="M 0,0 C 0,6.021 -5.519,11.037 -15.678,11.037 -25.084,11.037 -30.729,6.021 -30.729,0 -30.729,-6.02 -25.084,-10.911 -15.678,-10.911 -5.519,-10.911 0,-6.02 0,0 M 13.169,17.684 V -13.294 C 13.169,-16.932 10.786,-19.565 7.023,-19.565 3.386,-19.565 1.003,-16.932 1.003,-13.294 V -13.043 C -3.889,-17.684 -11.037,-20.192 -19.44,-20.192 -35.118,-20.192 -44.524,-11.664 -44.524,-0.501 -44.524,10.661 -34.741,19.691 -19.064,19.691 -11.163,19.691 -4.767,17.308 -0.627,13.796 V 17.81 C -0.627,29.348 -7.651,35.118 -17.559,35.118 -24.206,35.118 -27.969,33.111 -31.104,31.104 -32.233,30.477 -33.487,30.101 -34.616,30.101 -37.877,30.101 -40.135,32.358 -40.135,35.494 -40.135,37.5 -38.755,39.382 -36.874,40.636 -33.612,43.019 -27.091,46.656 -15.051,46.656 2.508,46.656 13.169,36.121 13.169,17.684"
             style="fill:#ffffff;fill-opacity:1;fill-rule:nonzero;stroke:none"
             id="path308" /></g><g
           id="g310"
           transform="translate(1632.6787,801.9277)"><path
             d="M 0,0 V -31.857 C 0,-35.87 -2.76,-38.755 -6.898,-38.755 -10.912,-38.755 -13.797,-35.87 -13.797,-31.857 V -4.515 C -13.797,9.156 -20.569,14.799 -28.596,14.799 -37.25,14.799 -44.9,9.406 -45.151,-4.39 V -31.857 C -45.151,-35.87 -47.91,-38.755 -52.05,-38.755 -56.063,-38.755 -58.947,-35.87 -58.947,-31.857 V -4.515 C -58.947,9.156 -65.72,14.799 -73.747,14.799 -82.401,14.799 -90.052,9.406 -90.303,-4.39 V -31.857 C -90.303,-35.87 -93.062,-38.755 -97.2,-38.755 -101.214,-38.755 -104.099,-35.87 -104.099,-31.857 V 20.443 C -104.099,24.206 -101.465,26.84 -97.702,26.84 -93.939,26.84 -91.306,24.206 -91.306,20.443 V 14.925 C -86.791,23.328 -78.388,27.467 -69.232,27.467 -59.574,27.467 -51.046,22.45 -47.283,12.417 -43.145,22.45 -34.24,27.467 -24.081,27.467 -10.786,27.467 0,18.186 0,0"
             style="fill:#ffffff;fill-opacity:1;fill-rule:nonzero;stroke:none"
             id="path312" /></g></g></g></g></svg>
